<svg width="419" height="98" xmlns="http://www.w3.org/2000/svg"><defs><linearGradient x1="82.837%" y1="86.396%" x2="32.357%" y2="10.879%" id="a"><stop stop-color="#FFE230" offset="0%"/><stop stop-color="#FFD820" offset="100%"/></linearGradient><linearGradient x1="16.684%" y1="49.791%" x2="98.711%" y2="34.261%" id="b"><stop stop-color="#EDEDED" offset="0%"/><stop stop-color="#F3F3F3" offset="100%"/></linearGradient></defs><g fill="none" fill-rule="evenodd"><path d="M0 0H420V98H0z"/><path d="M72.68 31l14.64 42h-13.2l-1.74-6.36h-12.9L57.8 73H44.6l14.64-42h13.44zm-6.72 11.76L62.3 56.2h7.26l-3.6-13.44zM91.22 73V31H113c7.86 0 12.48 4.56 12.48 10.86 0 4.26-2.04 7.74-5.52 9.42 5.04 1.14 8.1 4.56 8.1 9.78 0 7.08-5.16 11.94-14.76 11.94H91.22zm12.84-9.9h8.16c1.92 0 3.06-1.44 3.06-3.3 0-1.74-1.2-3.24-3.12-3.24h-8.1v6.54zm0-15.96h5.64c1.92 0 2.94-1.38 2.94-3.24 0-1.68-1.14-3-2.94-3h-5.64v6.24zm47.52 26.7c-13.14 0-20.04-7.8-20.04-19.2v-5.28c0-11.4 6.9-19.2 20.04-19.2 13.14 0 20.04 7.8 20.04 19.2v5.28c0 11.4-6.9 19.2-20.04 19.2zm0-10.92c4.44 0 6.9-2.64 6.9-7.5v-6.84c0-4.86-2.46-7.5-6.9-7.5s-6.9 2.64-6.9 7.5v6.84c0 4.86 2.46 7.5 6.9 7.5zm43.92 10.92c-11.76 0-18.9-6.42-18.9-16.86V31h13.14v25.98c0 4.26 2.46 5.82 5.76 5.82s5.76-1.56 5.76-5.82V31h13.14v25.98c0 10.44-7.14 16.86-18.9 16.86zm33.66-.84V42.1H218.6V31h34.32v11.1H242.3V73h-13.14z" fill-opacity=".87" fill="#000"/><circle fill="url(#a)" fill-rule="nonzero" cx="36" cy="48" r="36"/><path d="M67.741 31A35.841 35.841 0 0 1 72 48a35.832 35.832 0 0 1-5.195 18.64H59.48L57.8 73H44.6l14.64-42h8.501zM65.96 42.76L62.3 56.2h7.26l-3.6-13.44z" fill="#FFF" fill-rule="nonzero"/><rect fill="url(#b)" fill-rule="nonzero" x="149" y="86" width="269.773" height="7.406" rx="3.703"/></g></svg>