<svg width="484" height="100" xmlns="http://www.w3.org/2000/svg"><path d="M.496 35V1.112h13.632c5.568 0 10.512 0 13.488 4.272 1.296 1.92 1.92 4.656 1.92 6.96 0 1.872-.384 3.696-1.152 5.28-2.928 6.048-9.168 6.192-13.776 6.288H8.992V35H.496zM14.368 7.352H8.992v10.272h5.088c3.168 0 7.008-.096 7.008-5.328 0-4.944-4.272-4.944-6.72-4.944zM50.83 25.784l5.568 2.832c-.864 1.296-1.728 2.544-3.024 3.744-2.16 2.016-5.424 3.552-9.456 3.552-7.44 0-12.672-4.752-12.672-12.96 0-6.048 2.976-13.824 12.864-13.824 1.488 0 5.808.144 9.024 3.6 3.264 3.504 3.456 8.4 3.552 11.232H38.782c-.048 3.12 1.728 6.24 5.712 6.24 4.032 0 5.424-2.64 6.336-4.416zm-12-6.432h10.224c-.144-1.056-.336-2.448-1.392-3.552-.912-.912-2.304-1.392-3.6-1.392-1.776 0-3.024.864-3.744 1.632-1.008 1.104-1.248 2.256-1.488 3.312zm29.597-9.456v2.64c1.632-1.392 3.408-2.496 7.248-2.88v6.528l-2.448.384c-3.552.624-4.608 1.152-4.608 4.32V35h-7.392V9.896h7.2zm12.462.624V7.448c0-1.248.096-2.928 1.056-4.272.912-1.248 2.976-2.544 6.432-2.544 1.488 0 2.976.24 4.416.432v5.52h-1.776c-2.784 0-2.928.576-2.88 3.936h4.944v4.512h-4.896V35h-7.344V15.032h-3.936V10.52h3.984zm34.014 15.264l5.568 2.832c-.864 1.296-1.728 2.544-3.024 3.744-2.16 2.016-5.424 3.552-9.456 3.552-7.44 0-12.672-4.752-12.672-12.96 0-6.048 2.976-13.824 12.864-13.824 1.488 0 5.808.144 9.024 3.6 3.264 3.504 3.456 8.4 3.552 11.232h-17.904c-.048 3.12 1.728 6.24 5.712 6.24 4.032 0 5.424-2.64 6.336-4.416zm-12-6.432h10.224c-.144-1.056-.336-2.448-1.392-3.552-.912-.912-2.304-1.392-3.6-1.392-1.776 0-3.024.864-3.744 1.632-1.008 1.104-1.248 2.256-1.488 3.312zm38.814 6.864l5.568 2.88c-.912 1.44-1.92 3.024-3.936 4.464a12.468 12.468 0 0 1-7.2 2.256c-4.8 0-12.432-2.88-12.432-13.104 0-7.296 4.224-13.44 12.576-13.44 2.784 0 7.536.768 10.704 6l-5.472 3.12c-.432-.912-.912-1.776-2.112-2.64-.72-.48-1.632-.864-2.784-.864-3.984 0-5.328 4.56-5.328 7.584 0 3.312 1.632 7.488 5.568 7.488.384 0 2.208 0 3.744-1.728.624-.72.864-1.296 1.104-2.016zm8.957-15.744V2.696h7.344v7.824h4.848v4.512h-4.896v11.28c-.048 1.536-.048 2.832 1.92 2.832l2.64-.096v5.76c-1.584.24-2.544.384-3.888.384-2.544 0-5.328-.144-6.912-2.448-1.008-1.488-1.056-3.264-1.056-5.664V14.984h-3.648v-4.512h3.648zm16.542-3.696V1.064h7.296v5.712h-7.296zm0 28.224V9.896h7.296V35h-7.296zm27.006-25.824c10.224.576 12.48 8.688 12.48 13.248 0 6.336-3.648 13.296-13.44 13.296-7.056 0-13.488-4.032-13.488-13.296 0-7.68 4.848-13.776 14.448-13.248zm-1.392 5.856c-2.112.144-3.36.864-4.368 2.448-.912 1.44-1.248 3.168-1.248 4.896 0 3.984 1.92 7.488 6.048 7.488 3.984 0 5.952-3.216 5.952-7.152 0-2.784-.672-4.944-2.064-6.288-1.536-1.44-3.264-1.488-4.32-1.392zm26.573-5.04V12.2c.72-.768 1.2-1.344 2.496-1.968a12.183 12.183 0 0 1 4.56-.912c1.488 0 3.168.288 4.464 1.008 2.64 1.392 3.312 3.648 3.312 7.536V35h-7.344V20.888c0-2.256-.048-3.072-.336-3.744-.576-1.344-1.872-1.92-3.312-1.92-3.888 0-3.888 3.12-3.888 6.24V35h-7.392V9.992h7.44zm35.292-3.216V1.064h7.296v5.712h-7.296zm0 28.224V9.896h7.296V35h-7.296zm10.926-4.224l4.656-4.224c2.016 1.968 4.512 3.456 7.296 3.456 1.776 0 4.464-.576 4.464-2.448 0-.864-.528-1.2-.96-1.44-1.104-.576-2.832-.72-4.272-.96-1.104-.192-2.256-.432-3.36-.768-1.536-.432-3.072-1.056-4.176-2.16s-1.872-2.832-1.872-4.704c0-4.128 3.552-8.4 10.56-8.4 5.904 0 9.456 2.544 11.184 3.744l-4.56 4.224c-2.352-1.824-4.56-2.496-6.288-2.496-2.88 0-3.552 1.152-3.552 1.872 0 1.44 1.584 1.728 3.984 2.16 5.04.912 10.896 2.256 10.896 8.208 0 5.904-5.952 8.784-11.856 8.784-6.96 0-10.56-3.36-12.144-4.848zm49.643-20.784V12.2c.72-.768 1.2-1.344 2.496-1.968a12.183 12.183 0 0 1 4.56-.912c1.488 0 3.168.288 4.464 1.008 2.64 1.392 3.312 3.648 3.312 7.536V35h-7.344V20.888c0-2.256-.048-3.072-.336-3.744-.576-1.344-1.872-1.92-3.312-1.92-3.888 0-3.888 3.12-3.888 6.24V35h-7.392V9.992h7.44zm34.542-.816c10.224.576 12.48 8.688 12.48 13.248 0 6.336-3.648 13.296-13.44 13.296-7.056 0-13.488-4.032-13.488-13.296 0-7.68 4.848-13.776 14.448-13.248zm-1.392 5.856c-2.112.144-3.36.864-4.368 2.448-.912 1.44-1.248 3.168-1.248 4.896 0 3.984 1.92 7.488 6.048 7.488 3.984 0 5.952-3.216 5.952-7.152 0-2.784-.672-4.944-2.064-6.288-1.536-1.44-3.264-1.488-4.32-1.392zm19.95-4.56V2.696h7.343v7.824h4.848v4.512h-4.896v11.28c-.048 1.536-.048 2.832 1.92 2.832l2.64-.096v5.76c-1.584.24-2.544.384-3.888.384-2.544 0-5.328-.144-6.912-2.448-1.008-1.488-1.056-3.264-1.056-5.664V14.984h-3.648v-4.512h3.648zm16.445-9.408h7.392v11.52c1.056-1.056 3.216-3.312 7.2-3.312 1.824 0 3.84.528 5.328 1.776 2.208 1.872 2.592 4.224 2.592 7.488V35h-7.344V21.896c0-2.016-.048-2.976-.336-3.84-.72-2.256-2.688-2.496-3.456-2.496-1.296 0-2.4.624-3.024 1.44-.96 1.296-.96 3.36-.96 5.52V35h-7.392V1.064zm29.454 5.712V1.064h7.296v5.712h-7.296zm0 28.224V9.896h7.296V35h-7.296zm21.822-25.008V12.2c.72-.768 1.2-1.344 2.496-1.968a12.183 12.183 0 0 1 4.56-.912c1.488 0 3.168.288 4.464 1.008 2.64 1.392 3.312 3.648 3.312 7.536V35h-7.344V20.888c0-2.256-.048-3.072-.336-3.744-.576-1.344-1.872-1.92-3.312-1.92-3.888 0-3.888 3.12-3.888 6.24V35h-7.392V9.992h7.44zm37.037 24.384v-2.688c-1.44.96-3.216 2.112-6.624 2.112-2.064 0-4.08-.528-5.712-1.632-3.36-2.16-4.656-6.048-4.656-10.368 0-5.04 2.352-12.288 10.656-12.288 3.84 0 5.616 1.68 6.72 2.736V9.896h6.912v24.096c-.096 2.736-.192 5.952-3.84 8.064-2.544 1.536-6.288 1.92-8.544 1.92-4.992 0-8.256-1.728-9.6-3.12-1.968-1.968-1.92-4.512-1.92-5.856h7.632c.096 1.104.192 2.688 2.16 3.6.48.24 1.2.48 2.352.48 4.464 0 4.464-2.64 4.464-4.704zm-4.992-19.344c-3.504.144-4.368 3.168-4.368 6.72 0 2.112.144 6.48 4.704 6.48 3.744 0 4.608-2.928 4.608-6.48 0-1.2-.096-3.696-.912-4.896-.576-.912-1.92-1.92-4.032-1.824zM101.08 57.112h7.392V91h-7.392V57.112zm32.238 24.672l5.568 2.832c-.864 1.296-1.728 2.544-3.024 3.744-2.16 2.016-5.424 3.552-9.456 3.552-7.44 0-12.672-4.752-12.672-12.96 0-6.048 2.976-13.824 12.864-13.824 1.488 0 5.808.144 9.024 3.6 3.264 3.504 3.456 8.4 3.552 11.232h-17.904c-.048 3.12 1.728 6.24 5.712 6.24 4.032 0 5.424-2.64 6.336-4.416zm-12-6.432h10.224c-.144-1.056-.336-2.448-1.392-3.552-.912-.912-2.304-1.392-3.6-1.392-1.776 0-3.024.864-3.744 1.632-1.008 1.104-1.248 2.256-1.488 3.312zm23.693-8.832v-3.072c0-1.248.096-2.928 1.056-4.272.912-1.248 2.976-2.544 6.432-2.544 1.488 0 2.976.24 4.416.432v5.52h-1.776c-2.784 0-2.928.576-2.88 3.936h4.944v4.512h-4.896V91h-7.344V71.032h-3.936V66.52h3.984zm17.07-.048v-7.776h7.344v7.824h4.848v4.512h-4.896v11.28c-.048 1.536-.048 2.832 1.92 2.832l2.64-.096v5.76c-1.584.24-2.544.384-3.888.384-2.544 0-5.328-.144-6.912-2.448-1.008-1.488-1.056-3.264-1.056-5.664V70.984h-3.648v-4.512h3.648zm30.731 0v-7.776h7.344v7.824h4.848v4.512h-4.896v11.28c-.048 1.536-.048 2.832 1.92 2.832l2.64-.096v5.76c-1.584.24-2.544.384-3.888.384-2.544 0-5.328-.144-6.912-2.448-1.008-1.488-1.056-3.264-1.056-5.664V70.984h-3.648v-4.512h3.648zm29.166-1.296c10.224.576 12.48 8.688 12.48 13.248 0 6.336-3.648 13.296-13.44 13.296-7.056 0-13.488-4.032-13.488-13.296 0-7.68 4.848-13.776 14.448-13.248zm-1.392 5.856c-2.112.144-3.36.864-4.368 2.448-.912 1.44-1.248 3.168-1.248 4.896 0 3.984 1.92 7.488 6.048 7.488 3.984 0 5.952-3.216 5.952-7.152 0-2.784-.672-4.944-2.064-6.288-1.536-1.44-3.264-1.488-4.32-1.392zm33.324-4.56v-7.776h7.344v7.824h4.848v4.512h-4.896v11.28c-.048 1.536-.048 2.832 1.92 2.832l2.64-.096v5.76c-1.584.24-2.544.384-3.888.384-2.544 0-5.328-.144-6.912-2.448-1.008-1.488-1.056-3.264-1.056-5.664V70.984h-3.648v-4.512h3.648zm23.741 6.576h-7.392c.144-1.728.384-3.792 2.64-5.568 2.304-1.824 5.28-2.208 8.208-2.208 3.072 0 10.512.72 10.512 7.2v14.592c0 2.688.144 3.072.72 3.936h-7.248v-2.304c-1.872 1.392-3.984 2.976-7.68 2.976-5.76 0-8.208-4.128-8.208-7.632 0-4.032 3.216-6.336 5.28-7.2 2.016-.864 6.768-1.728 9.888-2.304v-1.344c-.096-1.152-.192-3.072-2.832-3.072-3.264 0-3.696 2.016-3.888 2.928zM284.37 79l-4.752 1.584c-1.248.48-3.168 1.2-3.168 3.12 0 1.2 1.056 2.544 2.784 2.544.912 0 1.776-.336 2.544-.816 2.448-1.536 2.544-3.84 2.592-6.432zm14.286 12V57.112h7.248v17.424l8.112-8.592h8.88l-8.64 8.928L324 91h-8.544l-6.432-10.8-3.168 2.976V91h-7.2zm45.294-9.216l5.568 2.832c-.864 1.296-1.728 2.544-3.024 3.744-2.16 2.016-5.424 3.552-9.456 3.552-7.44 0-12.672-4.752-12.672-12.96 0-6.048 2.976-13.824 12.864-13.824 1.488 0 5.808.144 9.024 3.6 3.264 3.504 3.456 8.4 3.552 11.232h-17.904c-.048 3.12 1.728 6.24 5.712 6.24 4.032 0 5.424-2.64 6.336-4.416zm-12-6.432h10.224c-.144-1.056-.336-2.448-1.392-3.552-.912-.912-2.304-1.392-3.6-1.392-1.776 0-3.024.864-3.744 1.632-1.008 1.104-1.248 2.256-1.488 3.312zm43.163-2.304h-7.392c.144-1.728.384-3.792 2.64-5.568 2.304-1.824 5.28-2.208 8.208-2.208 3.072 0 10.512.72 10.512 7.2v14.592c0 2.688.144 3.072.72 3.936h-7.248v-2.304c-1.872 1.392-3.984 2.976-7.68 2.976-5.76 0-8.208-4.128-8.208-7.632 0-4.032 3.216-6.336 5.28-7.2 2.016-.864 6.768-1.728 9.888-2.304v-1.344c-.096-1.152-.192-3.072-2.832-3.072-3.264 0-3.696 2.016-3.888 2.928zm6.72 5.952l-4.752 1.584c-1.248.48-3.168 1.2-3.168 3.12 0 1.2 1.056 2.544 2.784 2.544.912 0 1.776-.336 2.544-.816 2.448-1.536 2.544-3.84 2.592-6.432zm11.07-13.056h7.776l3.504 17.52 3.792-17.52h7.872l3.408 17.664 3.936-17.664h7.632L423.335 91h-8.016l-3.696-16.704L407.879 91h-8.112l-6.864-25.056zm48.942 7.104h-7.392c.144-1.728.384-3.792 2.64-5.568 2.304-1.824 5.28-2.208 8.208-2.208 3.072 0 10.512.72 10.512 7.2v14.592c0 2.688.144 3.072.72 3.936h-7.248v-2.304c-1.872 1.392-3.984 2.976-7.68 2.976-5.76 0-8.208-4.128-8.208-7.632 0-4.032 3.216-6.336 5.28-7.2 2.016-.864 6.768-1.728 9.888-2.304v-1.344c-.096-1.152-.192-3.072-2.832-3.072-3.264 0-3.696 2.016-3.888 2.928zm6.72 5.952l-4.752 1.584c-1.248.48-3.168 1.2-3.168 3.12 0 1.2 1.056 2.544 2.784 2.544.912 0 1.776-.336 2.544-.816 2.448-1.536 2.544-3.84 2.592-6.432zm27.197-13.056h7.872l-8.832 27.072c-.576 1.632-1.104 3.168-2.352 4.56-1.728 1.872-3.408 1.968-5.328 2.016h-5.328v-5.856h2.592c1.2-.048 3.072-.048 3.072-1.824 0-.624-.192-1.248-.336-1.776l-7.488-24.192h7.872l4.128 17.952 4.128-17.952z" fill-rule="evenodd" fill-opacity=".03"/></svg>