<svg width="418" height="83" xmlns="http://www.w3.org/2000/svg" xmlns:xlink="http://www.w3.org/1999/xlink"><defs><linearGradient x1="4.064%" y1="35.559%" x2="91.468%" y2="70.387%" id="a"><stop stop-color="#FF4040" offset="0%"/><stop stop-color="#FF866E" offset="100%"/></linearGradient><circle id="b" cx="37" cy="48" r="36"/><linearGradient x1="15.579%" y1="50%" y2="34.017%" id="c"><stop stop-color="#E4E3EE" offset="0%"/><stop stop-color="#E8E8F1" offset="100%"/></linearGradient></defs><g transform="translate(-1 -12)" fill="none" fill-rule="evenodd"><path d="M0 0H420V98H0z"/><path d="M47 73.57v-41.3h12.921v14.692h10.62V32.27h12.921v41.3H70.541V58.76h-10.62v14.81H47zm43.154 0v-41.3h12.921v41.3h-12.92zM112.198 32h11.062l-.922 27.944h-9.218L112.198 32zm-.346 37.336c0-3.342 2.16-5.272 5.877-5.272 3.716 0 5.906 1.93 5.906 5.272 0 3.313-2.19 5.243-5.906 5.243-3.716 0-5.877-1.93-5.877-5.243zm48.463 4.235V43.186h-10.384V32.27h33.748v10.915h-10.443V73.57h-12.92zm27.874 0v-41.3h12.92v14.69h10.62v-14.69h12.922v41.3H211.73V58.76h-10.62v14.81h-12.921zm43.036 0v-41.3h31.21v10.62h-18.29v4.484h16.52v10.62h-16.52v4.956h18.35v10.62h-31.27zm59.615 0l-6.313-10.856h-3.717V73.57h-12.92v-41.3h20.65c10.501 0 16.224 6.254 16.224 15.28 0 5.9-2.655 10.444-7.08 12.98l8.201 13.04H290.84zm-10.03-21.063h6.254c3.068 0 4.78-2.065 4.78-4.897 0-3.068-1.653-5.015-4.78-5.015h-6.254v9.912zm29.407 21.063v-41.3h31.211v10.62h-18.29v4.484h16.52v10.62h-16.52v4.956h18.35v10.62h-31.27z" fill="#212121"/><g fill-rule="nonzero"><use fill="url(#a)" xlink:href="#b"/><use fill="#091AD0" xlink:href="#b"/></g><path d="M70.946 33a35.966 35.966 0 0 1 1.809 11.3 35.864 35.864 0 0 1-3.353 15.191h-9.481v12.366a36.135 36.135 0 0 1-3.26 2.443H47V33h12.921v14.691h10.62V33h.405z" fill="#FFF"/><path d="M152.872 87h222.367a3.703 3.703 0 1 1 0 7.406H152.872a3.703 3.703 0 1 1 0-7.406zm239.83.076h22.369a3.703 3.703 0 1 1 0 7.405h-22.368a3.703 3.703 0 1 1 0-7.405z" fill="url(#c)" fill-rule="nonzero"/></g></svg>