<svg width="32" height="32" xmlns="http://www.w3.org/2000/svg"><g fill="none"><path d="M0 0H32V32H0z"/><path d="M24.586 28.33c-.162-.917-.917-5.283-2.803-10.674 4.527-.754 8.516.485 9.001.647a14.715 14.715 0 0 1-6.198 10.026zM16.5 30.915c-3.342 0-6.414-1.185-8.894-3.18.27-.539 3.18-6.414 11.374-9.325.054 0 .054 0 .107-.054 2.049 5.444 2.857 10.026 3.073 11.32a13.361 13.361 0 0 1-5.66 1.24zM2 15.931v-.43c.647 0 7.654.107 14.877-2.103a53.43 53.43 0 0 1 1.186 2.533c-.215.054-.377.108-.593.162-7.492 2.48-11.427 9.272-11.804 9.865C3.456 23.262 2 19.758 2 15.932zm8.355-13.53c.377.54 2.965 4.259 5.39 8.625C8.954 12.86 2.97 12.86 2.323 12.86c.917-4.636 3.99-8.463 8.032-10.457zM16.5 1c3.665 0 7.061 1.401 9.595 3.773-.27.378-2.426 3.396-7.6 5.39-2.372-4.473-5.014-8.193-5.39-8.732 1.077-.27 2.21-.43 3.395-.43V1zm11.212 5.498A15.413 15.413 0 0 1 31 15.823c-.485-.107-5.283-1.132-10.08-.485-.108-.27-.216-.539-.323-.754a84.206 84.206 0 0 0-.97-2.156c5.39-2.318 7.815-5.499 8.085-5.93z" fill="#000"/></g></svg>