<svg enable-background="new 0 0 28 28" viewBox="0 0 28 28" xmlns="http://www.w3.org/2000/svg"><g transform="translate(-2 -2)"><path d="m0 0h32v32h-32z" fill="none"/><path d="m16 2c3.8 0 4.3 0 5.8.1s2.5.3 3.4.7 1.7.8 2.5 1.6 1.3 1.6 1.6 2.5.6 1.9.7 3.4.1 2 .1 5.8 0 4.3-.1 5.8-.3 2.5-.7 3.4-.8 1.7-1.6 2.5-1.6 1.3-2.5 1.6-1.9.6-3.4.7c-1.5-.1-2-.1-5.8-.1s-4.3 0-5.8-.1-2.5-.3-3.4-.7-1.7-.8-2.5-1.6-1.3-1.6-1.6-2.5-.6-1.9-.7-3.4c0-1.4 0-1.9 0-5.7s0-4.3.1-5.8.3-2.5.7-3.4.8-1.7 1.6-2.5 1.6-1.3 2.5-1.6 1.9-.6 3.4-.7c1.4 0 1.9 0 5.7 0zm0 2.5c-3.7 0-4.2 0-5.7.1-1.3.1-2.1.3-2.6.5-.7.3-1.1.6-1.6 1-.5.5-.8 1-1 1.6-.2.5-.4 1.3-.5 2.6-.1 1.5-.1 1.9-.1 5.7 0 3.7 0 4.2.1 5.7.1 1.4.3 2.1.5 2.6.3.7.6 1.1 1 1.6.5.5 1 .8 1.6 1 .5.2 1.2.4 2.6.5 1.5.1 1.9.1 5.7.1 3.7 0 4.2 0 5.7-.1 1.4-.1 2.1-.3 2.6-.5.7-.3 1.1-.6 1.6-1 .5-.5.8-1 1-1.6.2-.5.4-1.2.5-2.6.1-1.5.1-1.9.1-5.7 0-3.7 0-4.2-.1-5.7-.1-1.4-.3-2.1-.5-2.6-.3-.7-.6-1.1-1-1.6-.5-.5-1-.8-1.6-1-.5-.2-1.2-.4-2.6-.5-1.5-.1-2-.1-5.7-.1zm0 4.3c4 0 7.2 3.2 7.2 7.2s-3.2 7.2-7.2 7.2-7.2-3.2-7.2-7.2 3.2-7.2 7.2-7.2zm0 11.9c2.6 0 4.7-2.1 4.7-4.7s-2.1-4.7-4.7-4.7-4.7 2.1-4.7 4.7 2.1 4.7 4.7 4.7zm9.1-12.2c0 .9-.8 1.7-1.7 1.7s-1.7-.8-1.7-1.7.8-1.7 1.7-1.7c1 .1 1.7.8 1.7 1.7z" fill="#fff"/></g></svg>