<svg width="32" height="32" xmlns="http://www.w3.org/2000/svg"><g fill="none" fill-rule="evenodd"><path d="M0 0H32V32H0z"/><path d="M32 6.087a13.727 13.727 0 0 1-3.29 3.39c.014.19.021.474.021.853 0 1.76-.257 3.516-.772 5.27a19.031 19.031 0 0 1-2.346 5.044 19.87 19.87 0 0 1-3.746 4.274c-1.449 1.24-3.195 2.228-5.238 2.964-2.044.737-4.23 1.106-6.559 1.107-3.667 0-7.024-.982-10.07-2.944.474.054 1.002.08 1.584.08 3.046 0 5.76-.933 8.142-2.801a6.395 6.395 0 0 1-3.817-1.31c-1.123-.846-1.895-1.925-2.315-3.238.447.067.86.101 1.238.101a6.8 6.8 0 0 0 1.726-.223c-1.516-.311-2.771-1.066-3.767-2.263-.995-1.198-1.493-2.589-1.493-4.173v-.081c.92.515 1.909.792 2.965.832a6.547 6.547 0 0 1-2.132-2.335 6.394 6.394 0 0 1-.792-3.127c0-1.19.298-2.294.894-3.31a18.59 18.59 0 0 0 5.98 4.843 18.28 18.28 0 0 0 7.543 2.02 7.28 7.28 0 0 1-.163-1.502c0-1.814.64-3.36 1.92-4.639C18.791 3.641 20.337 3.001 22.15 3c1.895 0 3.492.69 4.792 2.07a12.866 12.866 0 0 0 4.162-1.583c-.5 1.557-1.462 2.761-2.883 3.614a13.075 13.075 0 0 0 3.776-1.015l.002.001z" fill="#000"/></g></svg>