<svg enable-background="new 0 0 32 32" viewBox="0 0 32 32" xmlns="http://www.w3.org/2000/svg"><g><path d="m0 0h32v32h-32z" fill="none"/><path d="m24.6 28.3c-.2-.9-.9-5.3-2.8-10.7 4.5-.8 8.5.5 9 .6-.6 4.3-2.9 7.9-6.2 10.1zm-8.1 2.6c-3.3 0-6.4-1.2-8.9-3.2.3-.5 3.2-6.4 11.4-9.3.1 0 .1 0 .1-.1 2 5.4 2.9 10 3.1 11.3-1.8.9-3.7 1.3-5.7 1.3zm-14.5-15v-.4c.6 0 7.7.1 14.9-2.1.4.9.8 1.7 1.2 2.5-.2.1-.4.1-.6.2-7.5 2.5-11.5 9.3-11.8 9.9-2.2-2.7-3.7-6.2-3.7-10.1zm8.4-13.5c.4.5 3 4.3 5.4 8.6-6.8 1.9-12.8 1.9-13.5 1.9.9-4.7 4-8.5 8.1-10.5zm6.1-1.4c3.7 0 7.1 1.4 9.6 3.8-.3.4-2.4 3.4-7.6 5.4-2.4-4.5-5-8.2-5.4-8.7 1.1-.3 2.2-.5 3.4-.5zm11.2 5.5c2 2.5 3.2 5.8 3.3 9.3-.5-.1-5.3-1.1-10.1-.5-.1-.3-.2-.5-.3-.8-.3-.8-.6-1.5-1-2.2 5.4-2.2 7.8-5.4 8.1-5.8z" fill="#fff"/></g></svg>