<svg enable-background="new 0 0 32 32" viewBox="0 0 32 32" xmlns="http://www.w3.org/2000/svg"><g><path d="m0 0h32v32h-32z" fill="none"/><path d="m32 6.1c-.9 1.3-2 2.5-3.3 3.4v.9c0 1.8-.3 3.5-.8 5.3s-1.3 3.4-2.3 5-2.3 3-3.7 4.3c-1.4 1.2-3.2 2.2-5.2 3-2 .7-4.2 1.1-6.6 1.1-3.7-.1-7.1-1.1-10.1-3.1.5.1 1 .1 1.6.1 3 0 5.8-.9 8.1-2.8-1.4 0-2.7-.5-3.8-1.3s-1.9-1.9-2.3-3.2c.4.1.9.1 1.2.1.6 0 1.2-.1 1.7-.2-1.5-.3-2.8-1.1-3.8-2.3s-1.5-2.6-1.5-4.2v-.1c.9.5 1.9.8 3 .8-.9-.6-1.6-1.4-2.1-2.3s-.8-2-.8-3.1c0-1.2.3-2.3.9-3.3 1.6 2 3.6 3.6 6 4.8s4.9 1.9 7.5 2c-.1-.5-.2-1-.2-1.5 0-1.8.6-3.4 1.9-4.6 1.4-1.3 2.9-1.9 4.8-1.9s3.5.7 4.8 2.1c1.5-.3 2.9-.8 4.2-1.6-.5 1.6-1.5 2.8-2.9 3.6 1.2-.1 2.4-.5 3.7-1z" fill="#fff"/></g></svg>