<svg width="28" height="28" xmlns="http://www.w3.org/2000/svg"><g transform="translate(-2 -2)" fill="none" fill-rule="evenodd"><path d="M0 0H32V32H0z"/><path d="M15.996 2.009c3.8 0 4.277.016 5.77.084 1.49.068 2.507.305 3.397.65.92.358 1.701.837 2.48 1.615a6.86 6.86 0 0 1 1.613 2.479c.346.89.583 1.907.65 3.397.07 1.493.085 1.97.085 5.77 0 3.801-.016 4.278-.084 5.77-.068 1.49-.305 2.508-.65 3.398a6.86 6.86 0 0 1-1.615 2.479 6.86 6.86 0 0 1-2.479 1.614c-.89.346-1.907.583-3.397.65-1.493.069-1.97.085-5.77.085-3.801 0-4.278-.016-5.77-.084-1.49-.068-2.508-.305-3.398-.65a6.86 6.86 0 0 1-2.479-1.615 6.86 6.86 0 0 1-1.614-2.479c-.346-.89-.583-1.908-.65-3.397-.069-1.493-.085-1.97-.085-5.77 0-3.802.016-4.278.084-5.77.068-1.49.305-2.508.65-3.398a6.86 6.86 0 0 1 1.615-2.48 6.86 6.86 0 0 1 2.479-1.613c.89-.346 1.908-.583 3.397-.65 1.493-.07 1.97-.085 5.77-.085zm0 2.522c-3.737 0-4.18.014-5.656.081-1.364.062-2.105.29-2.599.482a4.336 4.336 0 0 0-1.609 1.047c-.49.49-.793.956-1.047 1.61-.191.492-.42 1.233-.482 2.598-.067 1.476-.081 1.918-.081 5.655s.014 4.18.081 5.656c.063 1.364.29 2.105.482 2.599.254.653.557 1.12 1.047 1.609.49.49.956.793 1.61 1.047.493.191 1.234.42 2.598.482 1.476.067 1.918.081 5.656.081 3.737 0 4.18-.014 5.655-.081 1.365-.063 2.106-.29 2.599-.482a4.336 4.336 0 0 0 1.609-1.047c.49-.49.793-.956 1.047-1.61.192-.493.42-1.234.482-2.598.067-1.476.081-1.919.081-5.656 0-3.737-.014-4.18-.081-5.655-.062-1.365-.29-2.106-.482-2.599a4.336 4.336 0 0 0-1.047-1.609 4.336 4.336 0 0 0-1.61-1.047c-.492-.192-1.233-.42-2.598-.482-1.476-.067-1.918-.081-5.655-.081zm0 4.287a7.187 7.187 0 1 1 0 14.373 7.187 7.187 0 0 1 0-14.373zm0 11.852a4.665 4.665 0 1 0 0-9.33 4.665 4.665 0 0 0 0 9.33zm9.15-12.136a1.68 1.68 0 1 1-3.359 0 1.68 1.68 0 0 1 3.359 0z" fill="#030303"/></g></svg>