<svg width="419" height="98" xmlns="http://www.w3.org/2000/svg"><defs><linearGradient x1="82.837%" y1="86.396%" x2="32.357%" y2="10.879%" id="a"><stop stop-color="#FFE230" offset="0%"/><stop stop-color="#FFD820" offset="100%"/></linearGradient><linearGradient x1="16.684%" y1="49.791%" x2="98.711%" y2="34.261%" id="b"><stop stop-color="#EDEDED" offset="0%"/><stop stop-color="#F3F3F3" offset="100%"/></linearGradient></defs><g fill="none" fill-rule="evenodd"><path d="M0 0H420V98H0z"/><path d="M107.593 31.827l-9.745 41.346H84.97l-6.674-25.516-6.675 25.516H58.746L49 31.827h13.408l3.662 22.918 5.966-22.918h12.522l5.965 22.918 3.662-22.918h13.408zM129.178 74c-12.936 0-19.728-7.679-19.728-18.901V49.9C109.45 38.68 116.242 31 129.178 31c12.935 0 19.728 7.679 19.728 18.901V55.1c0 11.222-6.793 18.901-19.728 18.901zm0-10.75c4.37 0 6.792-2.599 6.792-7.383v-6.734c0-4.784-2.421-7.383-6.792-7.383s-6.793 2.599-6.793 7.383v6.734c0 4.784 2.422 7.383 6.793 7.383zm47.987 9.923l-6.32-10.868h-3.722v10.868h-12.935V31.827h20.673c10.514 0 16.243 6.26 16.243 15.298 0 5.907-2.658 10.455-7.088 12.995l8.21 13.053h-15.061zm-10.042-21.086h6.261c3.072 0 4.785-2.068 4.785-4.903 0-3.071-1.654-5.02-4.785-5.02h-6.26v9.923zm29.44 21.086V31.827H209.5v19.492l9.214-19.492h14.708l-10.75 20.496 11.045 20.85h-15.062L209.5 53.327v19.846h-12.935zM253.41 74c-10.218 0-17.129-4.962-17.129-13.172v-1.24h12.286v.886c0 2.422 2.126 3.721 4.902 3.721 2.836 0 4.962-1.063 4.962-3.249 0-1.18-.65-2.008-1.772-2.303l-9.51-2.363c-6.497-1.595-10.513-4.666-10.513-12.108 0-8.447 6.438-13.172 16.479-13.172 9.45 0 15.77 4.902 15.77 12.7v1.062h-11.93v-.945c0-1.713-1.064-3.012-3.9-3.012-2.42 0-3.838.827-3.838 2.54 0 1.122.531 1.713 1.535 2.008l10.691 2.835c6.32 1.654 9.569 5.493 9.569 11.754 0 8.151-6.97 14.058-17.602 14.058z" fill-opacity=".87" fill="#000"/><circle fill="url(#a)" fill-rule="nonzero" cx="36" cy="48" r="36"/><path d="M70.765 37.668a36.014 36.014 0 0 1 1.433 10.09c0 9.949-4.036 18.955-10.56 25.471h-2.664l-9.776-41.47h13.449l3.673 22.986 4.445-17.077z" fill="#FFF" fill-rule="nonzero"/><rect fill="url(#b)" fill-rule="nonzero" x="149" y="86" width="269.773" height="7.406" rx="3.703"/></g></svg>