<?xml version="1.0" encoding="utf-8"?>
<!-- Generator: Adobe Illustrator 16.0.0, SVG Export Plug-In . SVG Version: 6.00 Build 0)  -->
<!DOCTYPE svg PUBLIC "-//W3C//DTD SVG 1.1//EN" "http://www.w3.org/Graphics/SVG/1.1/DTD/svg11.dtd">
<svg version="1.1" id="Layer_1" xmlns="http://www.w3.org/2000/svg" xmlns:xlink="http://www.w3.org/1999/xlink" x="0px" y="0px"
	 width="152px" height="153px" viewBox="0 0 152 153" enable-background="new 0 0 152 153" xml:space="preserve">
<g>
	<path fill="#FFFFFF" d="M74.673,7.322c4.602,3.805,14.206,11.808,14.206,27.027c0,14.81-8.407,21.826-16.814,28.425
		c-2.603,2.597-5.605,5.408-5.605,9.817c0,4.397,3.002,6.798,5.201,8.606l7.216,5.594c8.806,7.41,16.809,14.222,16.809,28.041
		c0,18.814-18.221,37.83-52.647,37.83C14.006,152.662,0,138.852,0,124.032c0-7.211,3.594-17.407,15.418-24.424
		c12.4-7.604,29.226-8.601,38.231-9.212c-2.809-3.603-6.009-7.402-6.009-13.605c0-3.4,1.008-5.408,2.005-7.809
		c-2.209,0.2-4.403,0.399-6.408,0.399c-21.217,0-33.229-15.821-33.229-31.425c0-9.207,4.209-19.425,12.81-26.828
		c11.415-9.41,25.022-11.01,35.839-11.01h41.233L87.079,7.322H74.673z M60.451,96.21c-1.595-0.205-2.598-0.205-4.591-0.205
		c-1.805,0-12.622,0.404-21.029,3.209c-4.402,1.601-17.213,6.399-17.213,20.617c0,14.214,13.818,24.429,35.235,24.429
		c19.212,0,29.431-9.224,29.431-21.619C82.283,112.412,75.675,107.023,60.451,96.21z M66.261,58.173c4.602-4.614,5-11.011,5-14.616
		c0-14.413-8.606-36.835-25.216-36.835c-5.211,0-10.811,2.603-14.023,6.61c-3.4,4.207-4.397,9.604-4.397,14.815
		c0,13.409,7.809,35.631,25.028,35.631C57.654,63.777,63.048,61.379,66.261,58.173z"/>
</g>
<rect x="121.739" y="46.89" fill="#FFFFFF" width="11.358" height="49.082"/>
<rect x="102.81" y="65.82" fill="#FFFFFF" width="49.19" height="11.357"/>
</svg>
