<?xml version="1.0" encoding="utf-8"?>
<!-- Generator: Adobe Illustrator 15.1.0, SVG Export Plug-In . SVG Version: 6.00 Build 0)  -->
<!DOCTYPE svg PUBLIC "-//W3C//DTD SVG 1.1//EN" "http://www.w3.org/Graphics/SVG/1.1/DTD/svg11.dtd">
<svg version="1.1" id="Layer_1" xmlns="http://www.w3.org/2000/svg" xmlns:xlink="http://www.w3.org/1999/xlink" x="0px" y="0px"
	 width="557px" height="702px" viewBox="0 0 557 702" enable-background="new 0 0 557 702" xml:space="preserve">
<g>
	<g>
		<rect x="305.352" y="485.99" fill="#D3392C" width="71.274" height="190.064"/>
		<g>
			<path fill="#404040" d="M376.626,655.813v-51.033h-71.274v97.672h117.027c0-21.994-22.871-47.516-47.516-47.516"/>
			<rect x="305.352" y="569.586" fill="#FFFFFF" width="71.274" height="35.193"/>
		</g>
		<rect x="203.505" y="485.99" fill="#D3392C" width="71.273" height="190.064"/>
		<g>
			<path fill="#404040" d="M203.505,655.813v-51.033h71.273v97.672H157.742c0-21.994,22.881-47.516,47.516-47.516"/>
			<rect x="203.505" y="569.586" fill="#FFFFFF" width="71.273" height="35.193"/>
		</g>
		<g>
			<path fill="#D3392C" d="M175.903,448.518c25.287,63.721,97.185,95.188,160.585,70.273
				c63.417-24.939,94.305-96.807,69.016-160.521c-25.314-63.762-97.218-95.238-160.599-70.292
				C181.456,312.911,150.58,384.771,175.903,448.518z"/>
		</g>
	</g>
	<g>
		<g>
			<path fill="#ED9D98" d="M336.009,143.347c-2.929,10.711-14.179,16.942-25.145,13.944c-10.946-2.988-17.466-14.075-14.534-24.789
				c2.923-10.691,14.178-16.932,25.124-13.944C332.425,121.558,338.932,132.656,336.009,143.347z"/>
		</g>
		<g>
			<path fill="#ED9D98" d="M469.085,179.739c-2.928,10.701-14.199,16.931-25.145,13.943c-10.982-3.006-17.489-14.088-14.551-24.799
				c2.924-10.691,14.158-16.937,25.14-13.939C465.476,157.933,472.014,169.036,469.085,179.739z"/>
		</g>
		<g>
			<path fill="#FAD19A" d="M306.548,146.648c10.802-39.506,52.357-62.565,92.811-51.505c40.462,11.06,64.504,52.053,53.708,91.558
				c-10.802,39.506-52.357,62.565-92.814,51.506C319.793,227.146,295.75,186.156,306.548,146.648z"/>
		</g>
		<g>
			<path fill="#EA1C24" d="M463.476,148.49c-1.989-18.538-7.889-36.341-17.247-52.274c-17.246-29.447-62.809-57.166-98.779-67.002
				l-22.278,81.469L463.476,148.49z"/>
		</g>
		<g>
			<path fill="#FFFFFF" d="M338.262,29.746c-3.29,12.036-15.946,19.054-28.27,15.687c-12.344-3.374-19.667-15.849-16.377-27.888
				c3.3-12.049,15.949-19.068,28.288-15.702C334.225,5.211,341.551,17.7,338.262,29.746z"/>
		</g>
		<g>
			<path fill="#FFFFFF" d="M473.106,149.049c-1.536,5.612-7.491,8.917-13.245,7.352l-143.733-39.294
				c-5.759-1.578-9.193-7.448-7.656-13.068l7.697-28.143c1.537-5.612,7.486-8.93,13.24-7.36l143.739,39.295
				c5.754,1.573,9.183,7.456,7.649,13.073L473.106,149.049z"/>
		</g>
		<g>
			
				<rect x="298.904" y="166.017" transform="matrix(-0.9646 -0.2637 0.2637 -0.9646 687.6885 462.0308)" fill="#FAD19A" width="151.898" height="37.691"/>
		</g>
		<g>
			<path fill="#4D4D4D" d="M354.476,139.463c-0.689,2.532-3.351,3.999-5.918,3.295c-2.572-0.702-4.088-3.321-3.402-5.845
				c0.68-2.495,3.325-3.985,5.893-3.282C353.621,134.334,355.157,136.962,354.476,139.463z"/>
		</g>
		<g>
			<path fill="#4D4D4D" d="M415.476,156.139c-0.696,2.529,0.819,5.143,3.418,5.849c2.553,0.704,5.191-0.776,5.889-3.306
				c0.686-2.495-0.841-5.129-3.404-5.828C418.795,152.153,416.155,153.643,415.476,156.139z"/>
		</g>
		<g>
			<path fill="#4D4D4D" d="M354.476,139.463c-0.689,2.532-3.351,3.999-5.918,3.295c-2.572-0.702-4.088-3.321-3.402-5.845
				c0.68-2.495,3.325-3.985,5.893-3.282C353.621,134.334,355.157,136.962,354.476,139.463z"/>
		</g>
		<g>
			<path fill="#4D4D4D" d="M415.476,156.139c-0.696,2.529,0.819,5.143,3.418,5.849c2.553,0.704,5.191-0.776,5.889-3.306
				c0.686-2.495-0.841-5.129-3.404-5.828C418.795,152.153,416.155,153.643,415.476,156.139z"/>
		</g>
		<g>
			<path fill="#FFFFFF" d="M451.566,253.023c-10.162,37.163-49.238,58.831-87.299,48.423
				C271.193,276,261.837,168.813,271.99,131.659c17.238,4.712,91.015,24.837,129.069,35.244
				C439.114,177.311,461.728,215.854,451.566,253.023z"/>
		</g>
		<g>
			<path fill="#ED9D98" d="M401.033,166.889c-2.381,8.701-13.168,13.34-24.108,10.347c-10.935-2.988-17.864-12.464-15.482-21.17
				c2.382-8.718,13.157-13.338,24.088-10.35C396.476,148.71,403.411,158.171,401.033,166.889z"/>
		</g>
	</g>
	<path fill="#4D4D4D" d="M308.1,237.125c0,8.487-6.883,15.37-15.377,15.37c-8.488,0-15.369-6.883-15.369-15.37"/>
	<rect x="166.553" y="384.438" fill="#404040" width="248.355" height="33.877"/>
	<g>
		<rect x="77.254" y="585.93" fill="#FEE000" width="116.109" height="116.109"/>
		<g>
			<polygon fill="#924396" points="142.091,637.441 142.091,585.93 126.533,585.93 126.533,637.441 77.254,637.441 77.254,653.008 
				126.533,653.008 126.533,702.039 142.091,702.039 142.091,653.008 193.363,653.008 193.363,637.441 			"/>
		</g>
	</g>
	<g>
		<rect x="386.793" y="612.102" fill="#DC4637" width="90.098" height="90.102"/>
		<g>
			<polygon fill="#FEE000" points="438.614,650.584 438.614,612.102 423.043,612.102 423.043,650.584 386.793,650.584 
				386.793,666.145 423.043,666.145 423.043,702.215 438.614,702.215 438.614,666.145 476.902,666.145 476.902,650.584 			"/>
		</g>
	</g>
	<g>
		<rect x="482.438" y="633.035" fill="#F68C38" width="69.666" height="69.674"/>
		<g>
			<polygon fill="#924396" points="524.675,659.824 524.675,633.035 509.11,633.035 509.11,659.824 482.438,659.824 
				482.438,675.383 509.11,675.383 509.11,702.709 524.675,702.709 524.675,675.383 552.104,675.383 552.104,659.824 			"/>
		</g>
	</g>
	<g>
		<rect x="2" y="633.035" fill="#028EBC" width="69.663" height="69.674"/>
		<g>
			<polygon fill="#FBE000" points="44.237,659.824 44.237,633.035 28.671,633.035 28.671,659.824 2,659.824 2,675.383 
				28.671,675.383 28.671,702.709 44.237,702.709 44.237,675.383 71.663,675.383 71.663,659.824 			"/>
		</g>
	</g>
	<g>
		<rect x="266.735" y="512.904" fill="#725D4D" width="45.763" height="58.074"/>
		<polygon fill="#D18316" points="349.125,702.092 229.913,702.092 214.729,552.5 364.309,552.5 		"/>
		<polygon fill="#06924A" points="518.426,530.357 62.106,530.357 290.266,270.7 		"/>
		<polygon fill="#06924A" points="466.775,367.611 78.981,458.748 227.198,218.803 		"/>
		<polygon fill="#06924A" points="377.229,243.688 100.533,364.5 179.203,167.432 		"/>
		<polygon fill="#06924A" points="258.992,163.473 105.188,290.725 105.59,134.618 		"/>
		<g>
			<polygon fill="#FED049" stroke="#FED049" stroke-width="1.0997" stroke-linejoin="round" stroke-miterlimit="10" points="
				63.417,82.653 85.985,92.772 107.119,79.912 104.469,104.505 123.229,120.612 99.022,125.69 89.481,148.526 77.174,127.075 
				52.545,125.059 69.124,106.723 			"/>
			<polygon fill="#FED049" stroke="#FED049" stroke-width="1.0997" stroke-linejoin="round" stroke-miterlimit="10" points="
				99.522,126.304 106.211,146.371 112.105,141.494 118.005,136.616 			"/>
		</g>
		<circle fill="#924396" cx="191.319" cy="350.236" r="12.676"/>
		<circle fill="#00B5F1" cx="235.187" cy="437.681" r="12.673"/>
		<path fill="#F68C38" d="M423.368,479.994c6.997,0,12.674,5.676,12.674,12.674c0,6.996-5.677,12.668-12.674,12.668
			c-6.996,0-12.668-5.672-12.668-12.668C410.7,485.67,416.373,479.994,423.368,479.994z"/>
		<path fill="#D53F2E" d="M364.907,344.973c7.002,0,12.673,5.673,12.673,12.676c0,7-5.671,12.678-12.673,12.678
			c-7.001,0-12.679-5.678-12.679-12.678C352.229,350.646,357.905,344.973,364.907,344.973z"/>
		<circle fill="#D53F2E" cx="202.811" cy="234.957" r="12.67"/>
		<path fill="#00B5F1" d="M161.959,167.412c4.449,5.39,3.707,13.372-1.697,17.834c-5.383,4.465-13.372,3.714-17.818-1.684
			c-4.48-5.393-3.72-13.374,1.676-17.831C149.511,161.26,157.497,162.016,161.959,167.412z"/>
		
			<path fill="none" stroke="#F5C337" stroke-width="3" stroke-linecap="round" stroke-miterlimit="10" stroke-dasharray="0,6.5982" d="
			M426.885,424.914"/>
		
			<path fill="none" stroke="#F5C337" stroke-width="3" stroke-linecap="round" stroke-miterlimit="10" stroke-dasharray="0,6.5982" d="
			M125.951,460.109"/>
		
			<path fill="none" stroke="#F5C337" stroke-width="3" stroke-linecap="round" stroke-miterlimit="10" stroke-dasharray="0,6.5982" d="
			M359.7,297.995"/>
		
			<path fill="none" stroke="#F5C337" stroke-width="3" stroke-linecap="round" stroke-miterlimit="10" stroke-dasharray="0,6.5982" d="
			M127.652,391.402"/>
		
			<path fill="none" stroke="#F5C337" stroke-width="3" stroke-linecap="round" stroke-miterlimit="10" stroke-dasharray="0,6.5982" d="
			M281.953,198.496"/>
		
			<path fill="none" stroke="#F5C337" stroke-width="3" stroke-linecap="round" stroke-miterlimit="10" stroke-dasharray="0,6.5982" d="
			M127.542,295.671"/>
		<path fill="#FFFFFF" d="M138.408,413.396c-7.177,13.467-23.913,18.563-37.379,11.373l0,0
			c-13.457-7.166-18.549-23.893-11.379-37.359l6.507-12.188c7.168-13.467,23.895-18.563,37.356-11.383l0,0
			c13.469,7.178,18.574,23.906,11.389,37.369L138.408,413.396z"/>
		<path fill="#FFFFFF" d="M388.335,346.82c12.425,8.864,29.676,5.965,38.529-6.458l0,0c8.852-12.423,5.96-29.672-6.46-38.519
			l-11.25-8.021c-12.426-8.86-29.661-5.97-38.524,6.453l0,0c-8.852,12.422-5.96,29.68,6.466,38.524L388.335,346.82z"/>
	</g>
	<path fill="#4D4D4D" d="M403.091,196.088c-2.525,16.466-17.911,27.771-34.384,25.252c-16.457-2.528-27.764-17.924-25.238-34.387"/>
</g>
<circle fill="#F6C337" cx="126.534" cy="296.5" r="8.419"/>
<circle fill="#F6C337" cx="162.534" cy="293.5" r="8.419"/>
<circle fill="#F6C337" cx="196.534" cy="284.5" r="8.419"/>
<circle fill="#F6C337" cx="227.534" cy="268.5" r="8.419"/>
<circle fill="#F6C337" cx="253.534" cy="245.5" r="8.419"/>
<circle fill="#F6C337" cx="274.534" cy="217.5" r="8.419"/>
<circle fill="#F6C337" cx="349.534" cy="315.5" r="8.419"/>
<circle fill="#F6C337" cx="324.534" cy="340.5" r="8.419"/>
<circle fill="#F6C337" cx="296.534" cy="361.499" r="8.419"/>
<circle fill="#F6C337" cx="264.534" cy="378.499" r="8.419"/>
<circle fill="#F6C337" cx="231.534" cy="389.499" r="8.419"/>
<circle fill="#F6C337" cx="197.534" cy="396.499" r="8.419"/>
<circle fill="#F6C337" cx="161.534" cy="396.499" r="8.419"/>
<circle fill="#F6C337" cx="125.534" cy="461.499" r="8.419"/>
<circle fill="#F6C337" cx="158.534" cy="473.499" r="8.419"/>
<circle fill="#F6C337" cx="193.534" cy="480.499" r="8.419"/>
<circle fill="#F6C337" cx="228.534" cy="482.499" r="8.419"/>
<circle fill="#F6C337" cx="263.534" cy="481.499" r="8.419"/>
<circle fill="#F6C337" cx="298.534" cy="477.499" r="8.419"/>
<circle fill="#F6C337" cx="333.534" cy="470.499" r="8.419"/>
<circle fill="#F6C337" cx="366.534" cy="460.499" r="8.419"/>
<circle fill="#F6C337" cx="399.534" cy="446.499" r="8.419"/>
<circle fill="#F6C337" cx="428.534" cy="428.499" r="8.419"/>
</svg>
