<?xml version="1.0" encoding="utf-8"?>
<!-- Generator: Adobe Illustrator 16.0.0, SVG Export Plug-In . SVG Version: 6.00 Build 0)  -->
<!DOCTYPE svg PUBLIC "-//W3C//DTD SVG 1.1//EN" "http://www.w3.org/Graphics/SVG/1.1/DTD/svg11.dtd">
<svg version="1.1" id="MAIN_BUILDINGS" xmlns="http://www.w3.org/2000/svg" xmlns:xlink="http://www.w3.org/1999/xlink" x="0px"
	 y="0px" width="167.855px" height="178.561px" viewBox="0 0 167.855 178.561" enable-background="new 0 0 167.855 178.561"
	 xml:space="preserve">
<g>
	<g>
		<rect x="45.687" y="129.674" fill="#725D4C" width="12.039" height="47.713"/>
		<polygon fill="#027039" points="51.707,0 108.955,163.018 51.707,163.018 0.101,163.018 		"/>
		<g>
			<g>
				<defs>
					<polygon id="SVGID_1_" points="51.707,0 108.955,163.018 51.707,163.018 0.101,163.018 					"/>
				</defs>
				<clipPath id="SVGID_2_">
					<use xlink:href="#SVGID_1_"  overflow="visible"/>
				</clipPath>
				<g clip-path="url(#SVGID_2_)">
					<g>
						<polyline fill="none" stroke="#0A824A" stroke-width="8.4633" stroke-miterlimit="10" points="-3.363,34.696 51.707,89.767 
							112.419,34.696 						"/>
						<polyline fill="none" stroke="#0A824A" stroke-width="8.4633" stroke-miterlimit="10" points="-3.363,71.32 51.707,126.393 
							112.419,71.32 						"/>
						<polyline fill="none" stroke="#0A824A" stroke-width="8.4633" stroke-miterlimit="10" points="-3.363,107.946 51.707,163.018 
							112.419,107.946 						"/>
					</g>
					<g>
						<polyline fill="none" stroke="#0A824A" stroke-width="8.4633" stroke-miterlimit="10" points="-3.363,-75.184 51.707,-20.111 
							112.419,-75.184 						"/>
						<polyline fill="none" stroke="#0A824A" stroke-width="8.4633" stroke-miterlimit="10" points="-3.363,-38.556 51.707,16.514 
							112.419,-38.556 						"/>
						<polyline fill="none" stroke="#0A824A" stroke-width="8.4633" stroke-miterlimit="10" points="-3.363,-1.931 51.707,53.141 
							112.419,-1.931 						"/>
					</g>
				</g>
			</g>
		</g>
		<polygon opacity="0.4" fill="#3A3A3A" points="57.726,163.018 45.687,163.018 45.687,171.123 57.726,165.673 		"/>
		<g>
			<path fill="#FFFFFF" stroke="#FFFFFF" stroke-width="1.4105" stroke-linejoin="round" stroke-miterlimit="10" d="M39.798,128.816
				c0,4.951,4.011,8.963,8.963,8.963s8.965-4.012,8.965-8.963H39.798z"/>
			<path fill="#FFFFFF" stroke="#FFFFFF" stroke-width="1.4105" stroke-linejoin="round" stroke-miterlimit="10" d="M21.871,128.816
				c0,4.951,4.014,8.963,8.964,8.963c4.951,0,8.964-4.012,8.964-8.963H21.871z"/>
			<path fill="#FFFFFF" stroke="#FFFFFF" stroke-width="1.4105" stroke-linejoin="round" stroke-miterlimit="10" d="M3.941,128.816
				c0,4.951,4.015,8.963,8.966,8.963c4.949,0,8.965-4.012,8.965-8.963H3.941z"/>
			<path fill="#FFFFFF" stroke="#FFFFFF" stroke-width="1.4105" stroke-linejoin="round" stroke-miterlimit="10" d="M76.042,100.663
				c0,4.951,4.01,8.965,8.962,8.965c4.951,0,8.964-4.014,8.964-8.965H76.042z"/>
			<path fill="#FFFFFF" stroke="#FFFFFF" stroke-width="1.4105" stroke-linejoin="round" stroke-miterlimit="10" d="M58.115,100.663
				c0,4.951,4.013,8.965,8.962,8.965c4.951,0,8.966-4.014,8.966-8.965H58.115z"/>
			<path fill="#FFFFFF" stroke="#FFFFFF" stroke-width="1.4105" stroke-linejoin="round" stroke-miterlimit="10" d="M40.185,100.663
				c0,4.951,4.015,8.965,8.964,8.965c4.951,0,8.966-4.014,8.966-8.965H40.185z"/>
			<path fill="#FFFFFF" stroke="#FFFFFF" stroke-width="1.4105" stroke-linejoin="round" stroke-miterlimit="10" d="M39.798,63.948
				c0,4.95,4.011,8.964,8.962,8.964c4.953,0,8.966-4.014,8.966-8.964H39.798z"/>
			<path fill="#FFFFFF" stroke="#FFFFFF" stroke-width="1.4105" stroke-linejoin="round" stroke-miterlimit="10" d="M21.871,63.948
				c0,4.95,4.011,8.964,8.964,8.964c4.948,0,8.964-4.014,8.964-8.964H21.871z"/>
		</g>
	</g>
	<g>
		<g>
			<rect x="85.553" y="108.121" fill="#666666" width="4.44" height="70.438"/>
			<circle fill="#FFFFFF" cx="87.773" cy="108.372" r="18.336"/>
			<circle fill="#286EE6" cx="87.773" cy="108.372" r="14.771"/>
			<path fill="#FFFFFF" d="M94.25,102.798c-0.168-1.041-0.332-1.622-1.123-2.121c-0.789-0.496-3.075-1.163-5.354-1.163
				c-2.278,0-4.564,0.667-5.354,1.163c-0.79,0.499-0.957,1.08-1.122,2.121c-0.168,1.038-0.583,4.154-0.583,4.779
				c0,0.622,0,7.106,0,7.106h1.081v0.677c0,0.597,0.484,1.08,1.081,1.08c0.596,0,1.08-0.483,1.08-1.08v-0.677h3.816h3.817v0.677
				c0,0.597,0.483,1.08,1.08,1.08s1.08-0.483,1.08-1.08v-0.677h1.081c0,0,0-6.484,0-7.106
				C94.832,106.952,94.417,103.836,94.25,102.798z M84.784,100.677h2.988h2.989c0.298,0,0.539,0.242,0.539,0.541
				c0,0.3-0.241,0.539-0.539,0.539h-2.989h-2.988c-0.3,0-0.541-0.239-0.541-0.539C84.243,100.919,84.485,100.677,84.784,100.677z
				 M82.875,112.438c-0.598,0-1.081-0.483-1.081-1.08c0-0.598,0.483-1.08,1.081-1.08c0.596,0,1.08,0.482,1.08,1.08
				C83.955,111.955,83.471,112.438,82.875,112.438z M87.773,107.89c0,0-4.413,0-5.021,0c-0.609,0-0.877-0.358-0.803-0.872
				c0.073-0.514,0.45-3.062,0.528-3.655s0.43-0.773,0.728-0.773c0.3,0,4.568,0,4.568,0s4.27,0,4.568,0s0.65,0.182,0.728,0.773
				c0.077,0.594,0.454,3.143,0.529,3.655c0.075,0.514-0.191,0.872-0.803,0.872S87.773,107.89,87.773,107.89z M92.67,112.438
				c-0.597,0-1.08-0.483-1.08-1.08c0-0.598,0.483-1.08,1.08-1.08s1.08,0.482,1.08,1.08C93.75,111.955,93.267,112.438,92.67,112.438z
				"/>
		</g>
		<g>
			<rect x="109.053" y="170.573" fill="#746458" width="3.174" height="7.705"/>
			<rect x="102.731" y="170.573" fill="#746458" width="3.175" height="7.705"/>
			<rect x="102.731" y="153.45" fill="#746458" width="3.175" height="11.775"/>
			<rect x="101.174" y="165.226" fill="#8C7665" width="13.834" height="7.766"/>
			<rect x="101.34" y="159.841" fill="#8C7665" width="6.18" height="2.72"/>
			<rect x="101.34" y="156.173" fill="#8C7665" width="6.18" height="2.722"/>
			<rect x="101.34" y="152.507" fill="#8C7665" width="6.18" height="2.72"/>
		</g>
		<g>
			<rect x="125.579" y="170.573" fill="#746458" width="3.176" height="7.705"/>
			<rect x="159.625" y="170.573" fill="#746458" width="3.174" height="7.705"/>
			<rect x="125.579" y="153.45" fill="#746458" width="3.176" height="11.775"/>
			<rect x="159.625" y="153.45" fill="#746458" width="3.174" height="11.775"/>
			<rect x="120.522" y="165.226" fill="#8C7665" width="47.334" height="7.766"/>
			<rect x="120.522" y="159.841" fill="#8C7665" width="47.334" height="2.72"/>
			<rect x="120.522" y="156.173" fill="#8C7665" width="47.334" height="2.722"/>
			<rect x="120.522" y="152.507" fill="#8C7665" width="47.334" height="2.72"/>
		</g>
		<g>
			<circle fill="#FFE18C" cx="129.427" cy="157.181" r="2.101"/>
			<circle fill="#FFE18C" cx="139.666" cy="157.181" r="2.101"/>
			<path fill="#28B04B" d="M130.281,137.885c0,0,4.527-9.45,8.663-11.42c0,0-2.166,8.859,0.196,11.617L130.281,137.885z"/>
			<path fill="#FFE18C" d="M140.323,143.005c0,3.045-2.469,5.515-5.514,5.515l0,0c-3.046,0-5.514-2.47-5.514-5.515l0,0
				c0-3.045,2.468-5.514,5.514-5.514l0,0C137.854,137.491,140.323,139.96,140.323,143.005L140.323,143.005z"/>
			<path fill="#FFFFFF" d="M141.108,139.087c0,0.406-0.327,0.734-0.733,0.734h-10.956c-0.405,0-0.734-0.328-0.734-0.734v-1.346
				c0-0.406,0.329-0.734,0.734-0.734h10.956c0.406,0,0.733,0.328,0.733,0.734V139.087z"/>
			<circle fill="#333333" cx="132.447" cy="142.218" r="0.984"/>
			<circle fill="#333333" cx="136.975" cy="142.218" r="0.985"/>
			<path fill="#28B04B" d="M140.059,161.644c0,3.045-2.469,5.514-5.514,5.514c-3.044,0-5.512-2.469-5.512-5.514v-7.611
				c0-3.045,2.468-5.514,5.512-5.514c3.045,0,5.514,2.469,5.514,5.514V161.644z"/>
			<polyline fill="#FFFFFF" points="131.397,165.058 131.397,174.509 134.284,174.509 134.284,165.058 			"/>
			<polyline fill="#28B04B" points="131.397,165.058 131.397,170.077 134.284,170.077 134.284,165.058 			"/>
			<path fill="#333333" d="M134.481,173.983h-3.348c-1.115,2.166-4.004,2.166-4.396,0.592c0,0-1.542,2.984,5.383,2.559
				C133.756,177.032,135.055,175.526,134.481,173.983z"/>
			<polyline fill="#FFFFFF" points="138.352,165.058 138.352,174.509 135.463,174.509 135.463,165.058 			"/>
			<polyline fill="#28B04B" points="138.352,165.058 138.352,170.077 135.463,170.077 135.463,165.058 			"/>
			<path fill="#333333" d="M135.267,173.983h3.349c1.115,2.166,4.003,2.166,4.396,0.592c0,0,1.542,2.984-5.383,2.559
				C135.993,177.032,134.693,175.526,135.267,173.983z"/>
			<line fill="none" stroke="#FFFFFF" stroke-miterlimit="10" x1="134.545" y1="148.519" x2="134.545" y2="163.351"/>
			<rect x="129.034" y="158.89" fill="#333333" width="11.024" height="2.756"/>
			<rect x="133.102" y="158.626" fill="#FFD600" width="2.889" height="3.15"/>
			<circle fill="#FFFFFF" cx="139.796" cy="125.548" r="1.181"/>
			<path fill="#FFE18C" d="M129.297,141.825l-1.838-2.496c0,0-1.052,6.435,2.493,5.646L129.297,141.825z"/>
			<path fill="#FFE18C" d="M139.797,141.825l1.836-2.496c0,0,1.051,6.435-2.492,5.646L139.797,141.825z"/>
		</g>
		<g>
			<circle fill="#FFE18C" cx="146.951" cy="157.181" r="2.101"/>
			<circle fill="#FFE18C" cx="157.189" cy="157.181" r="2.1"/>
			<path fill="#F5851F" d="M147.803,137.885c0,0,4.529-9.45,8.664-11.42c0,0-2.166,8.859,0.197,11.617L147.803,137.885z"/>
			<path fill="#FFE18C" d="M157.844,143.005c0,3.045-2.467,5.515-5.512,5.515l0,0c-3.045,0-5.515-2.47-5.515-5.515l0,0
				c0-3.045,2.47-5.514,5.515-5.514l0,0C155.377,137.491,157.844,139.96,157.844,143.005L157.844,143.005z"/>
			<path fill="#FFFFFF" d="M158.631,139.087c0,0.406-0.328,0.734-0.734,0.734h-10.956c-0.404,0-0.732-0.328-0.732-0.734v-1.346
				c0-0.406,0.328-0.734,0.732-0.734h10.956c0.406,0,0.734,0.328,0.734,0.734V139.087z"/>
			<circle fill="#333333" cx="149.969" cy="142.218" r="0.984"/>
			<circle fill="#333333" cx="154.498" cy="142.218" r="0.985"/>
			<path fill="#F5851F" d="M157.583,161.644c0,3.045-2.467,5.514-5.512,5.514c-3.048,0-5.515-2.469-5.515-5.514v-7.611
				c0-3.045,2.467-5.514,5.515-5.514c3.045,0,5.512,2.469,5.512,5.514V161.644z"/>
			<polyline fill="#FFFFFF" points="148.92,165.058 148.92,174.509 151.807,174.509 151.807,165.058 			"/>
			<polyline fill="#F5851F" points="148.92,165.058 148.92,170.077 151.807,170.077 151.807,165.058 			"/>
			<path fill="#333333" d="M152.004,173.983h-3.347c-1.116,2.166-4.005,2.166-4.398,0.592c0,0-1.542,2.984,5.382,2.559
				C151.281,177.032,152.58,175.526,152.004,173.983z"/>
			<polyline fill="#FFFFFF" points="155.875,165.058 155.875,174.509 152.988,174.509 152.988,165.058 			"/>
			<polyline fill="#F5851F" points="155.875,165.058 155.875,170.077 152.988,170.077 152.988,165.058 			"/>
			<path fill="#333333" d="M152.79,173.983h3.349c1.116,2.166,4.003,2.166,4.397,0.592c0,0,1.542,2.984-5.383,2.559
				C153.516,177.032,152.216,175.526,152.79,173.983z"/>
			<line fill="none" stroke="#FFFFFF" stroke-miterlimit="10" x1="152.072" y1="148.519" x2="152.072" y2="163.351"/>
			<rect x="146.557" y="158.89" fill="#333333" width="11.025" height="2.756"/>
			<rect x="150.627" y="158.626" fill="#FFD600" width="2.886" height="3.15"/>
			<circle fill="#FFFFFF" cx="157.322" cy="125.548" r="1.182"/>
			<path fill="#FFE18C" d="M146.822,141.825l-1.839-2.496c0,0-1.051,6.435,2.493,5.646L146.822,141.825z"/>
			<path fill="#FFE18C" d="M157.321,141.825l1.838-2.496c0,0,1.05,6.435-2.493,5.646L157.321,141.825z"/>
		</g>
		<g>
			<g>
				<path fill="#E84436" d="M119.382,137.885c0,0-8.026-7.389-12.161-9.356c0,0,3.51,6.156,1.147,8.914L119.382,137.885z"/>
				<path fill="#FFE18C" d="M118.73,143.005c0,3.045-2.468,5.515-5.513,5.515l0,0c-3.046,0-5.514-2.47-5.514-5.515l0,0
					c0-3.045,2.468-5.514,5.514-5.514l0,0C116.262,137.491,118.73,139.96,118.73,143.005L118.73,143.005z"/>
				<g>
					<path fill="#333333" d="M115.772,138.122c-0.764-0.399-1.632-0.631-2.555-0.631c-3.046,0-5.514,2.469-5.514,5.514
						c0,1.349,0.484,2.582,1.289,3.541C114.225,145.144,115.475,140.411,115.772,138.122z"/>
				</g>
				<path fill="#FFE18C" d="M114.786,144.442l-2.918-4.113c0,0-1.052,6.435,2.494,5.646L114.786,144.442z"/>
				<path fill="#FFFFFF" d="M119.516,139.087c0,0.406-0.328,0.734-0.733,0.734h-10.956c-0.405,0-0.734-0.328-0.734-0.734v-1.346
					c0-0.406,0.329-0.734,0.734-0.734h10.956c0.405,0,0.733,0.328,0.733,0.734V139.087z"/>
				<circle fill="#333333" cx="116.619" cy="142.218" r="0.985"/>
				<path fill="#E84436" d="M118.467,161.644c0,3.045-2.469,5.514-5.514,5.514c-3.044,0-5.513-2.469-5.513-5.514v-7.611
					c0-3.045,2.469-5.514,5.513-5.514c3.045,0,5.514,2.469,5.514,5.514V161.644z"/>
				<polyline fill="#FFFFFF" points="120.635,167.69 120.635,174.509 117.747,174.509 117.747,167.69 				"/>
				<path fill="#E84436" d="M112.202,167.19h5.545v2.887h2.889v-4.137c0-1-0.309-1.957-2.225-1.957l-2.542,0.207"/>
				<path fill="#333333" d="M117.55,173.983h3.348c1.115,2.166,4.003,2.166,4.397,0.592c0,0,1.542,2.984-5.383,2.559
					C118.276,177.032,116.976,175.526,117.55,173.983z"/>
				<rect x="107.442" y="158.89" fill="#333333" width="11.025" height="2.756"/>
				<rect x="118.01" y="158.626" fill="#FFD600" width="0.775" height="3.15"/>
				<circle fill="#FFFFFF" cx="106.369" cy="127.608" r="1.181"/>
				<circle fill="#FFE18C" cx="113.043" cy="159.347" r="2.1"/>
			</g>
			<path fill="#FFE18C" d="M117.931,142.733l5.188,1.5c0.562,0,0.562,0.812-0.25,0.812h-6.188L117.931,142.733z"/>
		</g>
		<g>
			<circle fill="#FFE18C" cx="58.892" cy="157.438" r="2.1"/>
			<circle fill="#FFE18C" cx="69.13" cy="157.438" r="2.101"/>
			<path fill="#F47B20" d="M59.745,138.144c0,0,4.528-9.451,8.664-11.42c0,0-2.166,8.858,0.195,11.616L59.745,138.144z"/>
			<path fill="#FFE18C" d="M69.786,143.263c0,3.045-2.468,5.514-5.513,5.514l0,0c-3.045,0-5.514-2.469-5.514-5.514l0,0
				c0-3.046,2.469-5.515,5.514-5.515l0,0C67.319,137.749,69.786,140.218,69.786,143.263L69.786,143.263z"/>
			<path fill="#FFFFFF" d="M70.573,139.344c0,0.406-0.328,0.734-0.734,0.734H58.881c-0.404,0-0.732-0.328-0.732-0.734v-1.346
				c0-0.406,0.328-0.733,0.732-0.733h10.957c0.406,0,0.734,0.327,0.734,0.733L70.573,139.344L70.573,139.344z"/>
			<circle fill="#333333" cx="61.911" cy="142.476" r="0.984"/>
			<circle fill="#333333" cx="66.439" cy="142.476" r="0.985"/>
			<path fill="#F47B20" d="M69.524,161.901c0,3.045-2.467,5.514-5.512,5.514c-3.047,0-5.514-2.469-5.514-5.514v-7.611
				c0-3.045,2.467-5.514,5.514-5.514c3.045,0,5.512,2.469,5.512,5.514V161.901z"/>
			<polyline fill="#FFFFFF" points="60.861,165.315 60.861,174.767 63.749,174.767 63.749,165.315 			"/>
			<polyline fill="#F47B20" points="60.861,165.315 60.861,170.335 63.749,170.335 63.749,165.315 			"/>
			<path fill="#333333" d="M63.947,174.241h-3.349c-1.115,2.166-4.004,2.166-4.397,0.592c0,0-1.541,2.984,5.383,2.56
				C63.22,177.29,64.52,175.784,63.947,174.241z"/>
			<polyline fill="#FFFFFF" points="67.817,165.315 67.817,174.767 64.928,174.767 64.928,165.315 			"/>
			<polyline fill="#F47B20" points="67.817,165.315 67.817,170.335 64.928,170.335 64.928,165.315 			"/>
			<path fill="#333333" d="M64.731,174.241h3.349c1.115,2.166,4.004,2.166,4.397,0.592c0,0,1.541,2.984-5.383,2.56
				C65.457,177.29,64.157,175.784,64.731,174.241z"/>
			<line fill="none" stroke="#FFFFFF" stroke-miterlimit="10" x1="64.012" y1="148.776" x2="64.012" y2="163.608"/>
			<rect x="58.499" y="159.147" fill="#333333" width="11.024" height="2.756"/>
			<rect x="62.568" y="158.884" fill="#FFD600" width="2.887" height="3.15"/>
			<circle fill="#FFFFFF" cx="69.262" cy="125.806" r="1.181"/>
			<path fill="#FFE18C" d="M58.761,142.083l-1.838-2.496c0,0-1.05,6.435,2.493,5.646L58.761,142.083z"/>
			<path fill="#FFE18C" d="M69.26,142.083l1.838-2.496c0,0,1.051,6.435-2.493,5.646L69.26,142.083z"/>
		</g>
	</g>
</g>
</svg>
