<?xml version="1.0" encoding="utf-8"?>
<!-- Generator: Adobe Illustrator 16.0.0, SVG Export Plug-In . SVG Version: 6.00 Build 0)  -->
<!DOCTYPE svg PUBLIC "-//W3C//DTD SVG 1.1//EN" "http://www.w3.org/Graphics/SVG/1.1/DTD/svg11.dtd">
<svg version="1.1" id="Layer_1" xmlns="http://www.w3.org/2000/svg" xmlns:xlink="http://www.w3.org/1999/xlink" x="0px" y="0px"
	 width="206.408px" height="274.55px" viewBox="0 0 206.408 274.55" enable-background="new 0 0 206.408 274.55"
	 xml:space="preserve">
<g>
	<g opacity="0.18">
		<path stroke="#000000" stroke-linecap="round" stroke-linejoin="round" stroke-miterlimit="10" d="M105.041,236.761
			c0,0.554-0.448,1-1,1h-0.843c-0.552,0-1-0.446-1-1v-4.844c0-0.553,0.448-1,1-1h0.843c0.552,0,1,0.447,1,1V236.761z"/>
		<path stroke="#000000" stroke-linecap="round" stroke-linejoin="round" stroke-miterlimit="10" d="M107.441,236.761
			c0,0.554,0.447,1,1,1h0.844c0.552,0,1-0.446,1-1v-4.844c0-0.553-0.448-1-1-1h-0.844c-0.553,0-1,0.447-1,1V236.761z"/>
		<path fill="none" stroke="#000000" stroke-width="2" stroke-linecap="round" stroke-miterlimit="10" d="M93.786,247.84v-12.5
			c0-0.553,0.448-1,1-1h22.912c0.552,0,1,0.447,1,1v12.5"/>
		<path d="M7,106.241C7,51.432,51.432,7,106.241,7s99.241,44.433,99.241,99.241c0,29.256-12.664,55.548-32.804,73.712h0.013
			c-8.231,8.246-49.191,35.631-49.191,39.574c-6.297,0-17.259,0-17.259,0s-10.961,0-17.259,0c0-3.943-40.959-31.328-49.191-39.574
			h0.012C19.664,161.79,7,135.497,7,106.241z"/>
		<path d="M7,106.241C7,51.432,51.432,7,106.241,7c-41.863,0-75.799,44.433-75.799,99.241c0,29.256,9.673,55.548,25.054,73.712
			h-0.009c6.287,8.246,37.572,35.631,37.572,39.574c-1.458,0-2.856,0-4.077,0c0-3.943-40.959-31.328-49.191-39.574h0.012
			C19.664,161.79,7,135.497,7,106.241z"/>
		<path d="M133.4,179.954c8.231-18.164,13.408-44.457,13.408-73.712C146.809,51.432,128.646,7,106.241,7
			c41.863,0,75.8,44.433,75.8,99.241c0,29.256-9.674,55.548-25.055,73.712h0.009c-6.286,8.246-37.571,35.631-37.571,39.574
			c-2.028,0-4.168,0-6.127,0c0-3.943,16.743-31.328,20.108-39.574L133.4,179.954L133.4,179.954z"/>
		<path d="M79.082,179.954c-8.231-18.164-13.408-44.457-13.408-73.712C65.674,51.432,83.836,7,106.241,7v212.528c0,0-3.16,0-7.055,0
			c0-3.943-16.744-31.328-20.109-39.574H79.082z"/>
		<polygon points="118.944,273.764 93.538,273.764 91.068,247.84 121.414,247.84 		"/>
		<path d="M7,106.241c0-17.428,4.507-33.798,12.397-48.032c4.998,71.013,64.181,127.071,136.464,127.071
			c3.754,0,7.47-0.158,11.146-0.455c-13.937,11.076-43.508,31.354-43.508,34.703c-6.297,0-17.259,0-17.259,0s-10.961,0-17.259,0
			c0-3.943-40.959-31.328-49.191-39.574h0.012C19.664,161.79,7,135.497,7,106.241z"/>
		<path d="M91.634,253.778c-0.651,1.131-1.286,2.225-2.054,3.559c-0.96,1.67,0.196,3.642,2.054,3.642s3.015-1.972,2.055-3.642
			C92.92,256.002,92.251,254.84,91.634,253.778z"/>
		<path d="M120.849,253.778c-0.652,1.131-1.286,2.225-2.055,3.559c-0.961,1.67,0.195,3.642,2.055,3.642
			c1.856,0,3.015-1.972,2.054-3.642C122.135,256.002,121.466,254.84,120.849,253.778z"/>
		<path d="M106.241,253.778c-0.652,1.131-1.287,2.225-2.054,3.559c-0.96,1.67,0.195,3.642,2.054,3.642
			c1.856,0,3.015-1.972,2.054-3.642C107.527,256.002,106.858,254.84,106.241,253.778z"/>
		<path fill="none" stroke="#000000" stroke-linecap="round" stroke-linejoin="round" stroke-miterlimit="10" d="M92.32,253.778
			c1.167,1.32,3.167,4.488,5.875,4.488c5.042,0,8.046-4.488,8.046-4.488s3.745,5.029,7.286,5.029c3.543,0,7.043-5.029,7.043-5.029"
			/>
		
			<line fill="none" stroke="#000000" stroke-linecap="round" stroke-linejoin="round" stroke-miterlimit="10" x1="95.356" y1="234.34" x2="89.234" y2="219.528"/>
		
			<line fill="none" stroke="#000000" stroke-linecap="round" stroke-linejoin="round" stroke-miterlimit="10" x1="117.127" y1="234.34" x2="123.248" y2="219.528"/>
		
			<line fill="none" stroke="#000000" stroke-linecap="round" stroke-linejoin="round" stroke-miterlimit="10" x1="99.729" y1="234.34" x2="97.285" y2="219.528"/>
		
			<line fill="none" stroke="#000000" stroke-linecap="round" stroke-linejoin="round" stroke-miterlimit="10" x1="112.753" y1="234.34" x2="115.197" y2="219.528"/>
		<path stroke="#000000" stroke-width="0.5" stroke-linejoin="round" stroke-miterlimit="10" d="M89.952,251.84
			c-0.08,0-0.155,0.013-0.232,0.023c-0.011,0.076-0.022,0.152-0.022,0.231c0,0.941,0.763,1.705,1.705,1.705
			c0.08,0,0.155-0.014,0.231-0.022c0.012-0.078,0.023-0.152,0.023-0.232C91.657,252.604,90.894,251.84,89.952,251.84z"/>
		<path stroke="#000000" stroke-width="0.5" stroke-linejoin="round" stroke-miterlimit="10" d="M93.315,251.84
			c0.08,0,0.154,0.013,0.231,0.023c0.012,0.076,0.023,0.152,0.023,0.231c0,0.941-0.763,1.705-1.705,1.705
			c-0.08,0-0.155-0.014-0.232-0.022c-0.011-0.078-0.022-0.152-0.022-0.232C91.61,252.604,92.374,251.84,93.315,251.84z"/>
		<path stroke="#000000" stroke-width="0.5" stroke-linejoin="round" stroke-miterlimit="10" d="M104.56,251.84
			c-0.08,0-0.155,0.013-0.232,0.023c-0.011,0.076-0.023,0.152-0.023,0.231c0,0.941,0.764,1.705,1.705,1.705
			c0.08,0,0.155-0.014,0.232-0.022c0.011-0.078,0.023-0.152,0.023-0.232C106.265,252.604,105.501,251.84,104.56,251.84z"/>
		<path stroke="#000000" stroke-width="0.5" stroke-linejoin="round" stroke-miterlimit="10" d="M107.923,251.84
			c0.079,0,0.155,0.013,0.231,0.023c0.012,0.076,0.022,0.152,0.022,0.231c0,0.941-0.763,1.705-1.704,1.705
			c-0.079,0-0.155-0.014-0.231-0.022c-0.011-0.078-0.023-0.152-0.023-0.232C106.218,252.604,106.98,251.84,107.923,251.84z"/>
		<path stroke="#000000" stroke-width="0.5" stroke-linejoin="round" stroke-miterlimit="10" d="M119.167,251.84
			c-0.079,0-0.155,0.013-0.23,0.023c-0.013,0.076-0.023,0.152-0.023,0.231c0,0.941,0.763,1.705,1.705,1.705
			c0.079,0,0.154-0.014,0.231-0.022c0.011-0.078,0.022-0.152,0.022-0.232C120.872,252.604,120.109,251.84,119.167,251.84z"/>
		<path stroke="#000000" stroke-width="0.5" stroke-linejoin="round" stroke-miterlimit="10" d="M122.53,251.84
			c0.079,0,0.155,0.013,0.23,0.023c0.013,0.076,0.023,0.152,0.023,0.231c0,0.941-0.763,1.705-1.705,1.705
			c-0.079,0-0.154-0.014-0.231-0.022c-0.011-0.078-0.022-0.152-0.022-0.232C120.825,252.604,121.588,251.84,122.53,251.84z"/>
		
			<line fill="none" stroke="#000000" stroke-width="2" stroke-linecap="round" stroke-miterlimit="10" x1="91.634" y1="253.778" x2="120.849" y2="253.778"/>
		<path d="M103.449,230.227c-3.053-3.056-2-5.918,0-9.918C103.449,220.309,107.366,225.809,103.449,230.227z"/>
		<path d="M108.699,230.227c-3.053-3.056-2-5.918,0-9.918C108.699,220.309,112.616,225.809,108.699,230.227z"/>
	</g>
	<g>
		<g>
			<path fill="#333333" stroke="#333333" stroke-linecap="round" stroke-linejoin="round" stroke-miterlimit="10" d="
				M98.041,229.761c0,0.554-0.448,1-1,1h-0.843c-0.552,0-1-0.446-1-1v-4.844c0-0.553,0.448-1,1-1h0.843c0.552,0,1,0.447,1,1V229.761
				z"/>
			<path fill="#333333" stroke="#333333" stroke-linecap="round" stroke-linejoin="round" stroke-miterlimit="10" d="
				M100.441,229.761c0,0.554,0.447,1,1,1h0.844c0.552,0,1-0.446,1-1v-4.844c0-0.553-0.448-1-1-1h-0.844c-0.553,0-1,0.447-1,1
				V229.761z"/>
			<path fill="none" stroke="#4E4E4E" stroke-width="2" stroke-linecap="round" stroke-miterlimit="10" d="M86.786,240.84v-12.5
				c0-0.553,0.448-1,1-1h22.912c0.552,0,1,0.447,1,1v12.5"/>
			
				<radialGradient id="SVGID_1_" cx="516.4441" cy="524.0017" r="102.8124" gradientTransform="matrix(-1 0 0 -1 615.6851 630.2651)" gradientUnits="userSpaceOnUse">
				<stop  offset="0" style="stop-color:#E04B3F"/>
				<stop  offset="0.65" style="stop-color:#D63F2F"/>
				<stop  offset="0.9784" style="stop-color:#CE392D"/>
				<stop  offset="1" style="stop-color:#CD382D"/>
			</radialGradient>
			<path fill="url(#SVGID_1_)" d="M0,99.241C0,44.432,44.432,0,99.241,0s99.241,44.433,99.241,99.241
				c0,29.256-12.664,55.548-32.804,73.712h0.013c-8.231,8.246-49.191,35.631-49.191,39.574c-6.297,0-17.259,0-17.259,0
				s-10.961,0-17.259,0c0-3.943-40.959-31.328-49.191-39.574h0.012C12.664,154.79,0,128.497,0,99.241z"/>
			<g>
				
					<radialGradient id="SVGID_2_" cx="-1849.051" cy="424.0408" r="149.6913" gradientTransform="matrix(1 0 0 -1 1947.4998 630.2651)" gradientUnits="userSpaceOnUse">
					<stop  offset="0" style="stop-color:#FEE000"/>
					<stop  offset="1" style="stop-color:#FFFFFF"/>
				</radialGradient>
				<path fill="url(#SVGID_2_)" d="M0,99.241C0,44.432,44.432,0,99.241,0C57.378,0,23.442,44.432,23.442,99.241
					c0,29.256,9.673,55.548,25.054,73.712h-0.009c6.287,8.246,37.572,35.631,37.572,39.574c-1.458,0-2.856,0-4.077,0
					c0-3.943-40.959-31.328-49.191-39.574h0.012C12.664,154.79,0,128.497,0,99.241z"/>
				
					<radialGradient id="SVGID_3_" cx="-1849.051" cy="424.0408" r="149.6688" gradientTransform="matrix(1 0 0 -1 1947.4998 630.2651)" gradientUnits="userSpaceOnUse">
					<stop  offset="0" style="stop-color:#FEE000"/>
					<stop  offset="1" style="stop-color:#FFFFFF"/>
				</radialGradient>
				<path fill="url(#SVGID_3_)" d="M126.4,172.954c8.231-18.164,13.408-44.457,13.408-73.712C139.809,44.432,121.646,0,99.241,0
					c41.863,0,75.8,44.433,75.8,99.241c0,29.256-9.674,55.548-25.055,73.712h0.009c-6.286,8.246-37.571,35.631-37.571,39.574
					c-2.028,0-4.168,0-6.127,0c0-3.943,16.743-31.328,20.108-39.574L126.4,172.954L126.4,172.954z"/>
				
					<radialGradient id="SVGID_4_" cx="-1849.051" cy="424.0408" r="149.6913" gradientTransform="matrix(1 0 0 -1 1947.4998 630.2651)" gradientUnits="userSpaceOnUse">
					<stop  offset="0" style="stop-color:#FEE000"/>
					<stop  offset="1" style="stop-color:#FFFFFF"/>
				</radialGradient>
				<path fill="url(#SVGID_4_)" d="M72.082,172.954c-8.231-18.164-13.408-44.457-13.408-73.712C58.674,44.432,76.836,0,99.241,0
					v212.528c0,0-3.16,0-7.055,0c0-3.943-16.744-31.328-20.109-39.574H72.082z"/>
			</g>
			<polygon fill="#998776" points="111.944,266.764 86.538,266.764 84.068,240.84 114.414,240.84 			"/>
			<g opacity="0.2">
				<path fill="#070707" d="M0,99.241c0-17.428,4.507-33.798,12.397-48.032c4.998,71.013,64.181,127.071,136.464,127.071
					c3.754,0,7.47-0.158,11.146-0.455c-13.937,11.076-43.508,31.354-43.508,34.703c-6.297,0-17.259,0-17.259,0s-10.961,0-17.259,0
					c0-3.943-40.959-31.328-49.191-39.574h0.012C12.664,154.79,0,128.497,0,99.241z"/>
			</g>
			<g>
				<path fill="#D53F2E" d="M84.634,246.778c-0.651,1.131-1.286,2.225-2.054,3.559c-0.96,1.67,0.196,3.642,2.054,3.642
					s3.015-1.972,2.055-3.642C85.92,249.002,85.251,247.84,84.634,246.778z"/>
			</g>
			<g>
				<path fill="#D53F2E" d="M113.849,246.778c-0.652,1.131-1.286,2.225-2.055,3.559c-0.961,1.67,0.195,3.642,2.055,3.642
					c1.856,0,3.015-1.972,2.054-3.642C115.135,249.002,114.466,247.84,113.849,246.778z"/>
			</g>
			<g>
				<path fill="#D53F2E" d="M99.241,246.778c-0.652,1.131-1.287,2.225-2.054,3.559c-0.96,1.67,0.195,3.642,2.054,3.642
					c1.856,0,3.015-1.972,2.054-3.642C100.527,249.002,99.858,247.84,99.241,246.778z"/>
			</g>
			<path fill="none" stroke="#4E4E4E" stroke-linecap="round" stroke-linejoin="round" stroke-miterlimit="10" d="M85.32,246.778
				c1.167,1.32,3.167,4.488,5.875,4.488c5.042,0,8.046-4.488,8.046-4.488s3.745,5.029,7.286,5.029c3.543,0,7.043-5.029,7.043-5.029"
				/>
			
				<line fill="none" stroke="#4E4E4E" stroke-linecap="round" stroke-linejoin="round" stroke-miterlimit="10" x1="88.356" y1="227.34" x2="82.234" y2="212.528"/>
			
				<line fill="none" stroke="#4E4E4E" stroke-linecap="round" stroke-linejoin="round" stroke-miterlimit="10" x1="110.127" y1="227.34" x2="116.248" y2="212.528"/>
			
				<line fill="none" stroke="#4E4E4E" stroke-linecap="round" stroke-linejoin="round" stroke-miterlimit="10" x1="92.729" y1="227.34" x2="90.285" y2="212.528"/>
			
				<line fill="none" stroke="#4E4E4E" stroke-linecap="round" stroke-linejoin="round" stroke-miterlimit="10" x1="105.753" y1="227.34" x2="108.197" y2="212.528"/>
			<g>
				<g>
					<path fill="#D53F2E" stroke="#D53F2E" stroke-width="0.5" stroke-linejoin="round" stroke-miterlimit="10" d="M82.952,244.84
						c-0.08,0-0.155,0.013-0.232,0.023c-0.011,0.076-0.022,0.152-0.022,0.231c0,0.941,0.763,1.705,1.705,1.705
						c0.08,0,0.155-0.014,0.231-0.022c0.012-0.078,0.023-0.152,0.023-0.232C84.657,245.604,83.894,244.84,82.952,244.84z"/>
				</g>
				<g>
					<path fill="#D53F2E" stroke="#D53F2E" stroke-width="0.5" stroke-linejoin="round" stroke-miterlimit="10" d="M86.315,244.84
						c0.08,0,0.154,0.013,0.231,0.023c0.012,0.076,0.023,0.152,0.023,0.231c0,0.941-0.763,1.705-1.705,1.705
						c-0.08,0-0.155-0.014-0.232-0.022c-0.011-0.078-0.022-0.152-0.022-0.232C84.61,245.604,85.374,244.84,86.315,244.84z"/>
				</g>
			</g>
			<g>
				<g>
					<path fill="#D53F2E" stroke="#D53F2E" stroke-width="0.5" stroke-linejoin="round" stroke-miterlimit="10" d="M97.56,244.84
						c-0.08,0-0.155,0.013-0.232,0.023c-0.011,0.076-0.023,0.152-0.023,0.231c0,0.941,0.764,1.705,1.705,1.705
						c0.08,0,0.155-0.014,0.232-0.022c0.011-0.078,0.023-0.152,0.023-0.232C99.265,245.604,98.501,244.84,97.56,244.84z"/>
				</g>
				<g>
					<path fill="#D53F2E" stroke="#D53F2E" stroke-width="0.5" stroke-linejoin="round" stroke-miterlimit="10" d="M100.923,244.84
						c0.079,0,0.155,0.013,0.231,0.023c0.012,0.076,0.022,0.152,0.022,0.231c0,0.941-0.763,1.705-1.704,1.705
						c-0.079,0-0.155-0.014-0.231-0.022c-0.011-0.078-0.023-0.152-0.023-0.232C99.218,245.604,99.98,244.84,100.923,244.84z"/>
				</g>
			</g>
			<g>
				<g>
					<path fill="#D53F2E" stroke="#D53F2E" stroke-width="0.5" stroke-linejoin="round" stroke-miterlimit="10" d="M112.167,244.84
						c-0.079,0-0.155,0.013-0.23,0.023c-0.013,0.076-0.023,0.152-0.023,0.231c0,0.941,0.763,1.705,1.705,1.705
						c0.079,0,0.154-0.014,0.231-0.022c0.011-0.078,0.022-0.152,0.022-0.232C113.872,245.604,113.109,244.84,112.167,244.84z"/>
				</g>
				<g>
					<path fill="#D53F2E" stroke="#D53F2E" stroke-width="0.5" stroke-linejoin="round" stroke-miterlimit="10" d="M115.53,244.84
						c0.079,0,0.155,0.013,0.23,0.023c0.013,0.076,0.023,0.152,0.023,0.231c0,0.941-0.763,1.705-1.705,1.705
						c-0.079,0-0.154-0.014-0.231-0.022c-0.011-0.078-0.022-0.152-0.022-0.232C113.825,245.604,114.588,244.84,115.53,244.84z"/>
				</g>
			</g>
			
				<line fill="none" stroke="#4E4E4E" stroke-width="2" stroke-linecap="round" stroke-miterlimit="10" x1="84.634" y1="246.778" x2="113.849" y2="246.778"/>
			<path fill="#F58120" d="M96.449,223.227c-3.053-3.056-2-5.918,0-9.918C96.449,213.309,100.366,218.809,96.449,223.227z"/>
			<path fill="#F58120" d="M101.699,223.227c-3.053-3.056-2-5.918,0-9.918C101.699,213.309,105.616,218.809,101.699,223.227z"/>
		</g>
	</g>
</g>
</svg>
