<?xml version="1.0" encoding="utf-8"?>
<!-- Generator: Adobe Illustrator 16.0.0, SVG Export Plug-In . SVG Version: 6.00 Build 0)  -->
<!DOCTYPE svg PUBLIC "-//W3C//DTD SVG 1.1//EN" "http://www.w3.org/Graphics/SVG/1.1/DTD/svg11.dtd">
<svg version="1.1" id="Layer_1" xmlns="http://www.w3.org/2000/svg" xmlns:xlink="http://www.w3.org/1999/xlink" x="0px" y="0px"
	 width="391px" height="374px" viewBox="0 0 391 374" enable-background="new 0 0 391 374" xml:space="preserve">
<g>
	<g opacity="0.18">
		<circle cx="291.162" cy="276.765" r="10.978"/>
		<path d="M102.919,40.391c-0.057,4.693,3.697,8.542,8.39,8.601c4.697,0.055,8.544-3.701,8.602-8.391
			c0.057-4.693-3.7-8.542-8.395-8.6C106.826,31.944,102.976,35.7,102.919,40.391z"/>
		<polygon points="265.488,151.938 294.514,265.417 378.247,183.512 		"/>
		<polygon points="265.608,151.972 294.514,265.417 354.981,176.998 		"/>
		<polyline points="149.643,214.851 139.208,252.12 123.413,247.697 133.849,210.428 		"/>
		<path d="M143.156,191.168c10.475,2.933,10.698,8.645,9.167,14.114l-6.333,22.615l-15.795-4.422l9.247-33.025L143.156,191.168z"/>
		<path d="M215.645,77.158c-0.21,17.287-14.389,31.132-31.681,30.918l0,0c-17.293-0.21-31.126-14.396-30.916-31.681l0,0
			c0.208-17.28,14.387-31.126,31.679-30.916l0,0C202.017,45.691,215.855,59.877,215.645,77.158L215.645,77.158z"/>
		<path d="M218.427,75.05c-0.226,18.529-15.422,33.368-33.956,33.143l0,0c-18.535-0.226-33.367-15.434-33.138-33.961l0,0
			c0.227-18.522,15.42-33.364,33.958-33.138l0,0C203.823,41.321,218.654,56.527,218.427,75.05L218.427,75.05z"/>
		<path d="M193.15,85.046l-16.274-23.549c0,0-6.413,36.452,13.765,32.222L193.15,85.046z"/>
		<path d="M134.875,130.18c4.662-16.648,21.933-26.368,38.574-21.708"/>
		<path d="M122.577,171.614c-4.661,16.645,5.058,33.926,21.706,38.588c16.643,4.66,33.915-5.064,38.576-21.708l11.652-41.615
			c4.661-16.647-5.051-33.923-21.694-38.583c-16.648-4.661-33.926,5.057-38.588,21.704L122.577,171.614z"/>
		<path d="M122.577,171.614c-4.661,16.645,5.058,33.926,21.706,38.588c16.643,4.66,21.163-8.634,25.824-25.279l11.652-41.614
			c4.662-16.648,7.701-30.353-8.941-35.013c-16.648-4.661-33.926,5.057-38.588,21.704L122.577,171.614z"/>
		<path d="M123.141,244.533l18.304,5.125c2.787,13.545,18.571,17.965,23.141,9.958c0,0,3.856,18.684-33.352,5.758
			C122.446,262.308,117.645,252.089,123.141,244.533z"/>
		<path d="M205.018,79.617l29.349,8.873c3.192,0.039,3.136,4.652-1.476,4.597l-35.129-0.428L205.018,79.617z"/>
		
			<line fill="none" stroke="#000000" stroke-width="5.8136" stroke-linecap="round" stroke-linejoin="round" stroke-miterlimit="10" x1="191.33" y1="130.421" x2="373.563" y2="181.447"/>
		<path d="M384.056,190.59c-0.909,3.247-4.27,5.136-7.526,4.224l-115.636-32.378c-3.241-0.907-5.146-4.271-4.237-7.518l3.019-10.781
			c0.91-3.248,4.287-5.14,7.527-4.232l115.636,32.378c3.257,0.912,5.146,4.278,4.236,7.526L384.056,190.59z"/>
		<path d="M366.516,185.679c-0.909,3.247-4.27,5.136-7.525,4.224l-98.097-27.468c-3.241-0.907-5.146-4.271-4.237-7.518l3.019-10.781
			c0.91-3.248,4.287-5.14,7.527-4.232l98.097,27.468c3.256,0.911,5.145,4.278,4.236,7.526L366.516,185.679z"/>
		<path d="M174.418,134.033c1.039,0.791,2.239,1.405,3.574,1.774l43.795,12.183c5.615,1.562,11.435-1.723,12.996-7.339
			c1.563-5.616-1.723-11.436-7.337-12.998l-43.796-12.182c-5.615-1.565-11.435,1.722-12.997,7.339
			C169.459,127.091,171.089,131.493,174.418,134.033z"/>
		<path d="M229.898,136.156c-3.37,4.413-2.52,10.723,1.894,14.091c4.413,3.37,10.724,2.524,14.09-1.891
			c3.372-4.414,2.524-10.723-1.887-14.091C239.579,130.896,233.271,131.741,229.898,136.156z"/>
		<path d="M116.488,192.97l20.694-73.906c2.786-9.95-3.018-20.276-12.966-23.062s-20.278,3.023-23.064,12.974l-20.693,73.905"/>
		<path d="M106.36,190.134l20.694-73.906c2.786-9.95,3.888-18.343-2.838-20.226c-9.948-2.786-20.278,3.023-23.064,12.974
			l-20.693,73.905"/>
		<rect x="86.574" y="159.723" transform="matrix(0.963 0.2696 -0.2696 0.963 50.2509 -30.7415)" width="100.906" height="15.645"/>
		<rect x="183.133" y="171.741" transform="matrix(0.9629 0.2697 -0.2697 0.9629 55.5957 -43.288)" width="4.401" height="17.881"/>
		<path d="M148.929,76.318c-0.106,8.634,2.888,16.582,7.942,22.793c12.007-0.421,28.571-4.499,28.797-23.012
			c0.227-18.561,12.8-22.913,25.816-22.169c-6.409-7.604-15.952-12.492-26.681-12.622l-65.106-0.796
			C119.697,40.512,149.287,46.939,148.929,76.318z"/>
		<path d="M160.123,76.454c-0.102,8.633,7.321,14.157,12.375,20.369c12.006-0.424,12.945-2.211,13.171-20.725
			c0.227-18.561,12.8-22.913,25.816-22.169c-6.409-7.604-15.952-12.492-26.681-12.622l-65.106-0.796
			C119.697,40.512,160.484,47.077,160.123,76.454z"/>
		
			<path fill="none" stroke="#000000" stroke-width="9.1356" stroke-linecap="round" stroke-linejoin="round" stroke-miterlimit="10" d="
			M211.484,53.93c-13.016-0.744-25.589,3.608-25.816,22.169c-0.226,18.513-16.79,22.591-28.797,23.012"/>
		
			<rect x="148.126" y="69.736" transform="matrix(-0.9999 -0.0122 0.0122 -0.9999 346.7162 151.503)" width="51.389" height="9.914"/>
		
			<ellipse transform="matrix(-0.9999 -0.0122 0.0122 -0.9999 410.2126 150.9108)" stroke="#000000" stroke-width="4.9831" stroke-miterlimit="10" cx="205.568" cy="74.199" rx="8.473" ry="13.907"/>
		<polygon points="117.66,124.835 107.4,136.938 104.483,147.354 110.737,149.418 		"/>
		<path d="M64.445,313.282c15.164-44.833,30.995-46.017,41.322-82.901c5.348-19.099,2.164-36.687-7.11-39.283
			c-9.275-2.597-21.128,10.78-26.476,29.879C61.53,259.016,73.996,266.234,64.445,313.282z"/>
		<path d="M85.078,239.357c5.647-16.7,11.546-17.141,15.393-30.88c1.992-7.114,0.805-13.666-2.649-14.633
			c-3.454-0.967-7.87,4.016-9.862,11.13C83.992,219.144,88.635,221.833,85.078,239.357z"/>
		<polygon points="56.82,246.636 56.405,253.383 62.386,256.531 55.64,256.116 52.491,262.097 52.906,255.351 46.925,252.202 
			53.671,252.618 		"/>
		<polygon points="58.328,267.594 58.139,270.673 60.867,272.109 57.79,271.918 56.354,274.646 56.543,271.569 53.815,270.134 
			56.892,270.323 		"/>
		<polygon points="52.113,283.776 51.701,290.488 57.651,293.622 50.939,293.208 47.807,299.156 48.219,292.446 42.27,289.315 
			48.98,289.726 		"/>
		<polygon points="96.776,266.938 96.443,272.384 101.271,274.925 95.826,274.591 93.282,279.417 93.617,273.972 88.79,271.43 
			94.235,271.766 		"/>
		<polygon points="45.105,316.637 44.932,319.465 47.439,320.784 44.611,320.609 43.291,323.117 43.465,320.288 40.958,318.97 
			43.786,319.144 		"/>
		<polygon points="47.093,336.85 46.685,343.459 52.543,346.541 45.936,346.135 42.854,351.99 43.258,345.385 37.404,342.303 
			44.007,342.709 		"/>
		<polygon points="36.467,296.384 36.322,298.729 38.402,299.824 36.056,299.68 34.961,301.76 35.105,299.413 33.027,298.319 
			35.371,298.463 		"/>
		<polygon points="88.412,308.131 88.267,310.477 90.347,311.57 88.001,311.426 86.907,313.505 87.05,311.16 84.972,310.066 
			87.316,310.21 		"/>
		<polygon points="59.647,357.355 59.351,362.131 63.585,364.359 58.809,364.064 56.583,368.299 56.874,363.523 52.643,361.297 
			57.415,361.59 		"/>
		<polygon points="39.313,380.473 39.113,383.695 41.97,385.197 38.748,385 37.247,387.855 37.442,384.635 34.588,383.131 
			37.808,383.33 		"/>
		<polygon points="74.904,334.396 74.731,337.178 77.197,338.475 74.417,338.303 73.12,340.77 73.289,337.988 70.825,336.691 
			73.604,336.861 		"/>
		<polygon points="55.59,305.934 55.39,309.195 58.279,310.716 55.02,310.514 53.499,313.403 53.698,310.145 50.809,308.625 
			54.068,308.824 		"/>
		<polygon points="91.831,284.555 91.376,291.96 97.941,295.418 90.536,294.961 87.08,301.525 87.534,294.12 80.97,290.666 
			88.374,291.12 		"/>
		<polygon points="75.884,315.599 75.764,317.547 77.491,318.457 75.542,318.336 74.633,320.064 74.752,318.115 73.024,317.207 
			74.974,317.326 		"/>
		<polygon points="61.955,324.76 61.629,330.076 66.341,332.559 61.025,332.23 58.543,336.943 58.87,331.627 54.157,329.146 
			59.473,329.473 		"/>
	</g>
	<g>
		<g>
			<circle fill="#FFFFFF" cx="260.162" cy="244.765" r="10.978"/>
			<path fill="#FFFFFF" d="M71.919,8.391c-0.057,4.693,3.697,8.542,8.39,8.601c4.697,0.055,8.544-3.701,8.602-8.391
				c0.057-4.693-3.7-8.542-8.395-8.6C75.826-0.056,71.976,3.7,71.919,8.391z"/>
			<polygon fill="#C4161C" points="234.488,119.938 263.514,233.417 347.247,151.512 			"/>
			<polygon fill="#EA1C24" points="234.608,119.972 263.514,233.417 323.981,144.998 			"/>
			<g>
				<polyline fill="#FFFFFF" points="118.643,182.851 108.208,220.12 92.413,215.697 102.849,178.428 				"/>
				<g>
					<path fill="#B67945" d="M112.156,159.168c10.475,2.933,10.698,8.645,9.167,14.114l-6.333,22.615l-15.795-4.422l9.247-33.025
						L112.156,159.168z"/>
				</g>
				<path fill="#FEE18C" d="M184.645,45.158c-0.21,17.287-14.389,31.132-31.681,30.918l0,0
					c-17.293-0.21-31.126-14.396-30.916-31.681l0,0c0.208-17.28,14.387-31.126,31.679-30.916l0,0
					C171.017,13.691,184.855,27.877,184.645,45.158L184.645,45.158z"/>
				<path fill="#FEE18C" d="M187.427,43.05c-0.226,18.529-15.422,33.368-33.956,33.143l0,0
					c-18.535-0.226-33.367-15.434-33.138-33.961l0,0c0.227-18.522,15.42-33.364,33.958-33.138l0,0
					C172.823,9.321,187.654,24.527,187.427,43.05L187.427,43.05z"/>
				<path fill="#FEE18C" d="M162.15,53.046l-16.274-23.549c0,0-6.413,36.452,13.765,32.222L162.15,53.046z"/>
				<path fill="#39B54A" d="M103.875,98.18c4.662-16.648,21.933-26.368,38.574-21.708"/>
				<path fill="#2C973E" d="M91.577,139.614c-4.661,16.645,5.058,33.926,21.706,38.588c16.643,4.66,33.915-5.064,38.576-21.708
					l11.652-41.615c4.661-16.647-5.051-33.923-21.694-38.583c-16.648-4.661-33.926,5.057-38.588,21.704L91.577,139.614z"/>
				<path fill="#38B349" d="M91.577,139.614c-4.661,16.645,5.058,33.926,21.706,38.588c16.643,4.66,21.163-8.634,25.824-25.279
					l11.652-41.614c4.662-16.648,7.701-30.353-8.941-35.013c-16.648-4.661-33.926,5.057-38.588,21.704L91.577,139.614z"/>
				<path fill="#333333" d="M92.141,212.533l18.304,5.125c2.787,13.545,18.571,17.965,23.141,9.958c0,0,3.856,18.684-33.352,5.758
					C91.446,230.308,86.645,220.089,92.141,212.533z"/>
			</g>
			<path fill="#FEE18C" d="M174.018,47.617l29.349,8.873c3.192,0.039,3.136,4.652-1.476,4.597l-35.129-0.428L174.018,47.617z"/>
			
				<line fill="none" stroke="#939598" stroke-width="5.8136" stroke-linecap="round" stroke-linejoin="round" stroke-miterlimit="10" x1="160.33" y1="98.421" x2="342.563" y2="149.447"/>
			<path fill="#DCDDDE" d="M353.056,158.59c-0.909,3.247-4.27,5.136-7.526,4.224l-115.636-32.378
				c-3.241-0.907-5.146-4.271-4.237-7.518l3.019-10.781c0.91-3.248,4.287-5.14,7.527-4.232l115.636,32.378
				c3.257,0.912,5.146,4.278,4.236,7.526L353.056,158.59z"/>
			<path fill="#FFFFFF" d="M335.516,153.679c-0.909,3.247-4.27,5.136-7.525,4.224l-98.097-27.468
				c-3.241-0.907-5.146-4.271-4.237-7.518l3.019-10.781c0.91-3.248,4.287-5.14,7.527-4.232l98.097,27.468
				c3.256,0.911,5.145,4.278,4.236,7.526L335.516,153.679z"/>
			<path fill="#38B349" d="M143.418,102.033c1.039,0.791,2.239,1.405,3.574,1.774l43.795,12.183
				c5.615,1.562,11.435-1.723,12.996-7.339c1.563-5.616-1.723-11.436-7.337-12.998l-43.796-12.182
				c-5.615-1.565-11.435,1.722-12.997,7.339C138.459,95.091,140.089,99.493,143.418,102.033z"/>
			<path fill="#FEE18C" d="M198.898,104.156c-3.37,4.413-2.52,10.723,1.894,14.091c4.413,3.37,10.724,2.524,14.09-1.891
				c3.372-4.414,2.524-10.723-1.887-14.091C208.579,98.896,202.271,99.741,198.898,104.156z"/>
			<path fill="#A1A3A6" d="M85.488,160.97l20.694-73.906c2.786-9.95-3.018-20.276-12.966-23.062s-20.278,3.023-23.064,12.974
				l-20.693,73.905"/>
			<path fill="#C0C2C4" d="M75.36,158.134l20.694-73.906c2.786-9.95,3.888-18.343-2.838-20.226
				c-9.948-2.786-20.278,3.023-23.064,12.974l-20.693,73.905"/>
			
				<rect x="55.574" y="127.723" transform="matrix(0.963 0.2696 -0.2696 0.963 40.4745 -23.568)" fill="#333333" width="100.906" height="15.645"/>
			
				<rect x="152.133" y="139.741" transform="matrix(0.9629 0.2697 -0.2697 0.9629 45.8169 -36.1133)" fill="#FFD600" width="4.401" height="17.881"/>
			<g>
				<path fill="#2C973E" d="M117.929,44.318c-0.106,8.634,2.888,16.582,7.942,22.793c12.007-0.421,28.571-4.499,28.797-23.012
					c0.227-18.561,12.8-22.913,25.816-22.169c-6.409-7.604-15.952-12.492-26.681-12.622L88.697,8.512
					C88.697,8.512,118.287,14.939,117.929,44.318z"/>
				<path fill="#38B349" d="M129.123,44.454c-0.102,8.633,7.321,14.157,12.375,20.369c12.006-0.424,12.945-2.211,13.171-20.725
					c0.227-18.561,12.8-22.913,25.816-22.169c-6.409-7.604-15.952-12.492-26.681-12.622L88.697,8.512
					C88.697,8.512,129.484,15.077,129.123,44.454z"/>
				
					<path fill="none" stroke="#FFFFFF" stroke-width="9.1356" stroke-linecap="round" stroke-linejoin="round" stroke-miterlimit="10" d="
					M180.484,21.93c-13.016-0.744-25.589,3.608-25.816,22.169c-0.226,18.513-16.79,22.591-28.797,23.012"/>
				
					<rect x="117.126" y="37.736" transform="matrix(-0.9999 -0.0122 0.0122 -0.9999 285.1092 87.1268)" fill="#333333" width="51.389" height="9.914"/>
			</g>
			
				<ellipse transform="matrix(-0.9999 -0.0122 0.0122 -0.9999 348.6068 86.5336)" fill="#60BBDE" stroke="#333333" stroke-width="4.9831" stroke-miterlimit="10" cx="174.568" cy="42.199" rx="8.473" ry="13.907"/>
			<polygon fill="#A1A3A6" points="86.66,92.835 76.4,104.938 73.483,115.354 79.737,117.418 			"/>
			<path fill="#F8991D" d="M33.445,281.282c15.164-44.833,30.995-46.017,41.322-82.901c5.348-19.099,2.164-36.687-7.11-39.283
				c-9.275-2.597-21.128,10.78-26.476,29.879C30.53,227.016,42.996,234.234,33.445,281.282z"/>
			<path fill="#FFF200" d="M54.078,207.357c5.647-16.7,11.546-17.141,15.393-30.88c1.992-7.114,0.805-13.666-2.649-14.633
				c-3.454-0.967-7.87,4.016-9.862,11.13C52.992,187.144,57.635,189.833,54.078,207.357z"/>
			<polygon fill="#FFF200" points="25.82,214.636 25.405,221.383 31.386,224.531 24.64,224.116 21.491,230.097 21.906,223.351 
				15.925,220.202 22.671,220.618 			"/>
			<polygon fill="#FFF200" points="27.328,235.594 27.139,238.673 29.867,240.109 26.79,239.918 25.354,242.646 25.543,239.569 
				22.815,238.134 25.892,238.323 			"/>
			<polygon fill="#FFF200" points="21.113,251.776 20.701,258.488 26.651,261.622 19.939,261.208 16.807,267.157 17.219,260.446 
				11.27,257.315 17.98,257.726 			"/>
			<polygon fill="#F8991D" points="65.776,234.938 65.443,240.384 70.271,242.925 64.826,242.591 62.282,247.417 62.617,241.972 
				57.79,239.43 63.235,239.766 			"/>
			<polygon fill="#F8991D" points="14.105,284.636 13.932,287.464 16.439,288.784 13.611,288.609 12.291,291.117 12.465,288.288 
				9.958,286.97 12.786,287.144 			"/>
			<polygon fill="#F8991D" points="16.093,304.85 15.685,311.459 21.543,314.541 14.936,314.135 11.854,319.99 12.258,313.385 
				6.404,310.303 13.007,310.709 			"/>
			<polygon fill="#F8991D" points="5.467,264.384 5.322,266.729 7.402,267.824 5.056,267.679 3.961,269.759 4.105,267.413 
				2.027,266.319 4.371,266.463 			"/>
			<polygon fill="#F8991D" points="57.412,276.131 57.267,278.477 59.347,279.571 57.001,279.426 55.907,281.505 56.05,279.16 
				53.972,278.066 56.316,278.21 			"/>
			<polygon fill="#F8991D" points="28.647,325.355 28.351,330.131 32.585,332.359 27.809,332.064 25.583,336.299 25.874,331.523 
				21.643,329.297 26.415,329.59 			"/>
			<polygon fill="#FFF200" points="8.313,348.473 8.113,351.695 10.97,353.197 7.748,353 6.247,355.855 6.442,352.635 
				3.588,351.131 6.808,351.33 			"/>
			<polygon fill="#F8991D" points="43.904,302.396 43.731,305.178 46.197,306.475 43.417,306.303 42.12,308.77 42.289,305.988 
				39.825,304.691 42.604,304.861 			"/>
			<polygon fill="#FFF200" points="24.59,273.934 24.39,277.195 27.279,278.716 24.02,278.514 22.499,281.403 22.698,278.144 
				19.809,276.625 23.068,276.825 			"/>
			<polygon fill="#FFF200" points="60.831,252.555 60.376,259.96 66.941,263.418 59.536,262.961 56.08,269.525 56.534,262.12 
				49.97,258.666 57.374,259.12 			"/>
			<polygon fill="#FFF200" points="44.884,283.599 44.764,285.547 46.491,286.458 44.542,286.336 43.633,288.064 43.752,286.115 
				42.024,285.207 43.974,285.327 			"/>
			<polygon fill="#FFF200" points="30.955,292.759 30.629,298.077 35.341,300.559 30.025,300.23 27.543,304.943 27.87,299.627 
				23.157,297.147 28.473,297.473 			"/>
		</g>
	</g>
</g>
</svg>
