<?xml version="1.0" encoding="utf-8"?>
<!-- Generator: Adobe Illustrator 16.0.0, SVG Export Plug-In . SVG Version: 6.00 Build 0)  -->
<!DOCTYPE svg PUBLIC "-//W3C//DTD SVG 1.1//EN" "http://www.w3.org/Graphics/SVG/1.1/DTD/svg11.dtd">
<svg version="1.1" id="Layer_1" xmlns="http://www.w3.org/2000/svg" xmlns:xlink="http://www.w3.org/1999/xlink" x="0px" y="0px"
	 width="201.057px" height="267.441px" viewBox="0 0 201.057 267.441" enable-background="new 0 0 201.057 267.441"
	 xml:space="preserve">
<g>
	<g opacity="0.18">
		<path d="M200.918,103.647c0-13.55-10.985-24.534-24.534-24.534c-5.092,0-9.819,1.553-13.74,4.208
			c-5.524,3.238-19.474,11.146-23.897,11.146c-3.389,0-5.92-2.637-5.92-5.889c0-1.712,1.229-3.488,2.221-4.634
			c0,0,13.656-12.144,13.656-32.324c0-24.642-19.138-44.62-45.046-44.62h-0.024C78.99,7,59.011,26.978,59.011,51.621
			c0,12.722,5.333,24.19,13.873,32.319l-0.012,0.005c0.987,1.146,2.222,2.922,2.222,4.634c0,3.252-2.534,5.889-5.92,5.889
			c-4.426,0-18.374-7.906-23.9-11.146c-3.919-2.655-8.646-4.208-13.738-4.208C17.984,79.113,7,90.098,7,103.647
			c0,8.06,3.905,15.188,9.907,19.661l-0.026,0.017l0.669,0.465c0.142,0.102,0.282,0.201,0.427,0.298l38.093,26.479l0.009,0.023
			c1.475,1.071,2.441,2.798,2.441,4.759c0,0.703-0.145,1.369-0.371,1.995c0,0-0.092,0.298-0.094,0.303l-27.134,68.337l0.033-0.007
			c-1.322,3.385-2.074,7.056-2.074,10.907c0,16.581,13.444,30.026,30.027,30.026c13.479,0,24.883-8.883,28.681-21.112
			c0.037-0.104,13.26-37.683,16.043-37.683h0.024c2.879,0,16.617,37.479,16.617,37.479c3.735,12.331,15.182,21.315,28.733,21.315
			c16.585,0,30.028-13.445,30.028-30.026c0-3.854-0.752-7.522-2.075-10.907l0.035,0.007l-27.136-68.337
			c-0.002-0.005-0.094-0.303-0.094-0.303c-0.228-0.626-0.371-1.292-0.371-1.995c0-1.963,0.969-3.688,2.443-4.759l0.007-0.023
			l38.086-26.478c0.15-0.1,0.295-0.205,0.443-0.308l0.659-0.458l-0.025-0.016C197.013,118.837,200.918,111.707,200.918,103.647z"/>
		<path fill="none" stroke="#000000" stroke-width="7.1971" stroke-miterlimit="10" d="M51.693,87.012
			c-2.108,3.562-4.317,2.256-6.43,5.817c-2.111,3.565,0.098,4.873-2.013,8.438c-2.11,3.562-4.318,2.255-6.428,5.815
			c-2.112,3.566,0.097,4.874-2.017,8.439c-2.113,3.566-4.322,2.261-6.435,5.829c-2.113,3.566,0.096,4.876-2.019,8.442"/>
		<path fill="none" stroke="#000000" stroke-width="7.1971" stroke-miterlimit="10" d="M181.574,129.8
			c-2.11-3.562,0.098-4.872-2.014-8.436c-2.109-3.565-4.318-2.257-6.431-5.821c-2.11-3.562,0.099-4.871-2.011-8.434
			c-2.112-3.566-4.321-2.257-6.435-5.823c-2.111-3.568,0.098-4.876-2.018-8.445c-2.113-3.566-4.322-2.26-6.437-5.827"/>
		<circle cx="105.531" cy="122.393" r="7.677"/>
		<circle cx="105.531" cy="144.224" r="7.677"/>
		<circle cx="105.531" cy="166.055" r="7.677"/>
		<circle cx="103.96" cy="166.055" r="7.677"/>
		<path fill="none" stroke="#000000" stroke-width="7.1971" stroke-miterlimit="10" d="M89.957,239.197
			c-4.664-1.729-3.496-4.88-8.16-6.609c-4.665-1.729-5.833,1.421-10.498-0.309c-4.667-1.73-3.499-4.881-8.166-6.611
			c-4.666-1.729-5.833,1.42-10.499-0.31c-4.668-1.731-3.5-4.881-8.169-6.612c-4.668-1.729-5.836,1.419-10.505-0.312"/>
		<path fill="none" stroke="#000000" stroke-width="7.1971" stroke-miterlimit="10" d="M173.588,218.435
			c-4.664,1.729-5.832-1.421-10.496,0.309c-4.665,1.729-3.498,4.88-8.163,6.609c-4.667,1.729-5.835-1.42-10.501,0.311
			c-4.666,1.731-3.498,4.881-8.163,6.61c-4.668,1.729-5.836-1.419-10.505,0.312c-4.669,1.731-3.5,4.881-8.169,6.612"/>
		<path d="M103.96,100.559c0-1.583,1.217-3.322,2.706-3.862l11.74-4.271c1.486-0.539,2.706,0.312,2.706,1.896v12.478
			c0,1.583-1.219,2.438-2.706,1.896l-11.74-4.271c-1.488-0.539-2.706-2.277-2.706-3.861V100.559z"/>
		<path d="M103.96,100.559c0-1.583-1.217-3.321-2.706-3.862l-11.739-4.271c-1.488-0.539-2.706,0.312-2.706,1.896v12.478
			c0,1.583,1.217,2.438,2.706,1.896l11.739-4.271c1.488-0.539,2.706-2.277,2.706-3.861V100.559z"/>
		<circle cx="105.531" cy="100.562" r="7.677"/>
		<circle cx="91.489" cy="41.291" r="7.677"/>
		<circle cx="116.431" cy="41.291" r="7.678"/>
		<path fill="none" stroke="#000000" stroke-width="7.1971" stroke-linecap="round" stroke-miterlimit="10" d="M77.521,58.96
			c3.176,11.643,13.792,20.21,26.438,20.21c12.646,0,23.265-8.567,26.438-20.21"/>
		<path d="M142.31,51.621c0.002,13.623-6.221,23.582-10.265,28.618c-3.141,3.911-0.916,11.26,4.069,13.616
			c-1.98-0.956-3.29-2.949-3.29-5.276c0-1.712,1.229-3.488,2.221-4.634c0,0,13.656-12.144,13.656-32.324
			c0-23.663-17.648-43.014-41.992-44.517C127.692,11.294,142.31,30.083,142.31,51.621z"/>
		<path d="M136.804,94.131c-0.072-0.022-0.147-0.041-0.221-0.065c0.065,0.024,0.132,0.062,0.2,0.089L136.804,94.131z"/>
		<path d="M182.706,120.225l0.023,0.016l-39.188,27.241l-0.007,0.024c-1.478,1.07-2.443,2.795-2.443,4.758
			c0,0.702,0.146,1.368,0.371,1.994c0,0,0.091,0.299,0.093,0.303l27.104,68.328c7.446,19.688,7.313,29.4,1.123,35.646
			c5.692-5.465,9.256-13.136,9.256-21.65c0-3.854-0.752-7.522-2.075-10.907l0.035,0.007l-27.135-68.337
			c-0.001-0.005-0.095-0.301-0.095-0.301c-0.228-0.628-0.371-1.292-0.371-1.997c0-1.961,0.969-3.688,2.443-4.759l0.007-0.023
			l38.086-26.478c0.15-0.1,0.295-0.205,0.443-0.308l0.659-0.458l-0.025-0.016c6.002-4.475,9.907-11.604,9.907-19.662
			c0-2.555-0.391-5.015-1.113-7.327C199.254,108.944,188.708,115.751,182.706,120.225z"/>
		<path d="M78.443,248.072c-2.609,8.408-8.815,15.234-16.819,18.678l0.003,0.033c12.274-1.103,22.425-9.586,25.964-20.983
			c0.036-0.103,12.416-35.277,15.739-37.562C90.489,212.826,78.48,247.968,78.443,248.072z"/>
		<circle cx="103.96" cy="100.562" r="7.677"/>
		<circle cx="103.96" cy="122.393" r="7.677"/>
		<circle cx="103.96" cy="144.224" r="7.677"/>
	</g>
	<g>
		<g>
			<path fill="#75564C" d="M193.918,96.647c0-13.55-10.985-24.534-24.534-24.534c-5.092,0-9.819,1.553-13.74,4.208
				c-5.524,3.238-19.474,11.146-23.897,11.146c-3.389,0-5.92-2.637-5.92-5.889c0-1.712,1.229-3.488,2.221-4.634
				c0,0,13.656-12.144,13.656-32.324C141.702,19.978,122.566,0,96.656,0h-0.024C71.99,0,52.011,19.978,52.011,44.621
				c0,12.722,5.333,24.19,13.873,32.319l-0.012,0.005c0.987,1.146,2.222,2.922,2.222,4.634c0,3.252-2.534,5.889-5.92,5.889
				c-4.426,0-18.374-7.906-23.9-11.146c-3.919-2.655-8.646-4.208-13.738-4.208C10.984,72.113,0,83.098,0,96.647
				c0,8.06,3.905,15.188,9.907,19.661l-0.026,0.017l0.669,0.465c0.142,0.102,0.282,0.201,0.427,0.298l38.093,26.479l0.009,0.023
				c1.475,1.071,2.441,2.798,2.441,4.759c0,0.703-0.145,1.369-0.371,1.995c0,0-0.092,0.298-0.094,0.303l-27.134,68.337l0.033-0.007
				c-1.322,3.385-2.074,7.056-2.074,10.907c0,16.581,13.444,30.026,30.027,30.026c13.479,0,24.883-8.883,28.681-21.112
				c0.037-0.104,13.26-37.683,16.043-37.683h0.024c2.879,0,16.617,37.479,16.617,37.479c3.735,12.331,15.182,21.315,28.733,21.315
				c16.585,0,30.028-13.445,30.028-30.026c0-3.854-0.752-7.522-2.075-10.907l0.035,0.007l-27.136-68.337
				c-0.002-0.005-0.094-0.303-0.094-0.303c-0.228-0.626-0.371-1.292-0.371-1.995c0-1.963,0.969-3.688,2.443-4.759l0.007-0.023
				l38.086-26.478c0.15-0.1,0.295-0.205,0.443-0.308l0.659-0.458l-0.025-0.016C190.013,111.837,193.918,104.707,193.918,96.647z"/>
			<g>
				<path fill="none" stroke="#F0F0F0" stroke-width="7.1971" stroke-miterlimit="10" d="M44.693,80.012
					c-2.108,3.562-4.317,2.256-6.43,5.817c-2.111,3.565,0.098,4.873-2.013,8.438c-2.11,3.562-4.318,2.255-6.428,5.815
					c-2.112,3.566,0.097,4.874-2.017,8.439c-2.113,3.566-4.322,2.261-6.435,5.829c-2.113,3.566,0.096,4.876-2.019,8.442"/>
			</g>
			<g>
				<path fill="none" stroke="#F0F0F0" stroke-width="7.1971" stroke-miterlimit="10" d="M174.574,122.8
					c-2.11-3.562,0.098-4.872-2.014-8.436c-2.109-3.565-4.318-2.257-6.431-5.821c-2.11-3.562,0.099-4.871-2.011-8.434
					c-2.112-3.566-4.321-2.257-6.435-5.823c-2.111-3.568,0.098-4.876-2.018-8.445c-2.113-3.566-4.322-2.26-6.437-5.827"/>
			</g>
			<circle opacity="0.2" fill="#161616" cx="98.531" cy="115.393" r="7.677"/>
			<circle opacity="0.2" fill="#161616" cx="98.531" cy="137.224" r="7.677"/>
			<circle opacity="0.2" fill="#161616" cx="98.531" cy="159.055" r="7.677"/>
			<circle fill="#E8401B" cx="96.96" cy="159.055" r="7.677"/>
			<g>
				<path fill="none" stroke="#F0F0F0" stroke-width="7.1971" stroke-miterlimit="10" d="M82.957,232.197
					c-4.664-1.729-3.496-4.88-8.16-6.609c-4.665-1.729-5.833,1.421-10.498-0.309c-4.667-1.73-3.499-4.881-8.166-6.611
					c-4.666-1.729-5.833,1.42-10.499-0.31c-4.668-1.731-3.5-4.881-8.169-6.612c-4.668-1.729-5.836,1.419-10.505-0.312"/>
			</g>
			<g>
				<path fill="none" stroke="#F0F0F0" stroke-width="7.1971" stroke-miterlimit="10" d="M166.588,211.435
					c-4.664,1.729-5.832-1.421-10.496,0.309c-4.665,1.729-3.498,4.88-8.163,6.609c-4.667,1.729-5.835-1.42-10.501,0.311
					c-4.666,1.731-3.498,4.881-8.163,6.61c-4.668,1.729-5.836-1.419-10.505,0.312c-4.669,1.731-3.5,4.881-8.169,6.612"/>
			</g>
			<g>
				<path fill="#18854A" d="M96.96,93.559c0-1.583,1.217-3.322,2.706-3.862l11.74-4.271c1.486-0.539,2.706,0.312,2.706,1.896v12.478
					c0,1.583-1.219,2.438-2.706,1.896l-11.74-4.271c-1.488-0.539-2.706-2.277-2.706-3.861V93.559z"/>
			</g>
			<g>
				<path fill="#18854A" d="M96.96,93.559c0-1.583-1.217-3.321-2.706-3.862l-11.739-4.271c-1.488-0.539-2.706,0.312-2.706,1.896
					v12.478c0,1.583,1.217,2.438,2.706,1.896l11.739-4.271c1.488-0.539,2.706-2.277,2.706-3.861V93.559z"/>
			</g>
			<circle opacity="0.2" fill="#161616" cx="98.531" cy="93.562" r="7.677"/>
			<circle fill="#F0F0F0" cx="84.489" cy="34.291" r="7.677"/>
			<circle fill="#F0F0F0" cx="109.431" cy="34.291" r="7.678"/>
			<path fill="none" stroke="#F0F0F0" stroke-width="7.1971" stroke-linecap="round" stroke-miterlimit="10" d="M70.521,51.96
				c3.176,11.643,13.792,20.21,26.438,20.21c12.646,0,23.265-8.567,26.438-20.21"/>
			<g>
				<path opacity="0.1" fill="#191919" enable-background="new    " d="M135.31,44.621c0.002,13.623-6.221,23.582-10.265,28.618
					c-3.141,3.911-0.916,11.26,4.069,13.616c-1.98-0.956-3.29-2.949-3.29-5.276c0-1.712,1.229-3.488,2.221-4.634
					c0,0,13.656-12.144,13.656-32.324c0-23.663-17.648-43.014-41.992-44.517C120.692,4.294,135.31,23.083,135.31,44.621z"/>
				<path fill="#E0E0E0" d="M129.804,87.131c-0.072-0.022-0.147-0.041-0.221-0.065c0.065,0.024,0.132,0.062,0.2,0.089
					L129.804,87.131z"/>
			</g>
			<path opacity="0.1" fill="#191919" enable-background="new    " d="M175.706,113.225l0.023,0.016l-39.188,27.241l-0.007,0.024
				c-1.478,1.07-2.443,2.795-2.443,4.758c0,0.702,0.146,1.368,0.371,1.994c0,0,0.091,0.299,0.093,0.303l27.104,68.328
				c7.446,19.688,7.313,29.4,1.123,35.646c5.692-5.465,9.256-13.136,9.256-21.65c0-3.854-0.752-7.522-2.075-10.907l0.035,0.007
				l-27.135-68.337c-0.001-0.005-0.095-0.301-0.095-0.301c-0.228-0.628-0.371-1.292-0.371-1.997c0-1.961,0.969-3.688,2.443-4.759
				l0.007-0.023l38.086-26.478c0.15-0.1,0.295-0.205,0.443-0.308l0.659-0.458l-0.025-0.016c6.002-4.475,9.907-11.604,9.907-19.662
				c0-2.555-0.391-5.015-1.113-7.327C192.254,101.944,181.708,108.751,175.706,113.225z"/>
			<path opacity="0.1" fill="#191919" enable-background="new    " d="M71.443,241.072c-2.609,8.408-8.815,15.234-16.819,18.678
				l0.003,0.033c12.274-1.103,22.425-9.586,25.964-20.983c0.036-0.103,12.416-35.277,15.739-37.562
				C83.489,205.826,71.48,240.968,71.443,241.072z"/>
			<circle fill="#178E46" cx="96.96" cy="93.562" r="7.677"/>
			<circle fill="#E8401B" cx="96.96" cy="115.393" r="7.677"/>
			<circle fill="#E8401B" cx="96.96" cy="137.224" r="7.677"/>
		</g>
	</g>
</g>
</svg>
