<?xml version="1.0" encoding="utf-8"?>
<!-- Generator: Adobe Illustrator 15.1.0, SVG Export Plug-In . SVG Version: 6.00 Build 0)  -->
<!DOCTYPE svg PUBLIC "-//W3C//DTD SVG 1.1//EN" "http://www.w3.org/Graphics/SVG/1.1/DTD/svg11.dtd">
<svg version="1.1" id="Layer_5" xmlns="http://www.w3.org/2000/svg" xmlns:xlink="http://www.w3.org/1999/xlink" x="0px" y="0px"
	 width="118.645px" height="137.355px" viewBox="0 0 118.645 137.355" enable-background="new 0 0 118.645 137.355"
	 xml:space="preserve">
<ellipse opacity="0.08" fill="#0D0D0D" enable-background="new    " cx="59.323" cy="132.084" rx="59.321" ry="5.271"/>
<g opacity="0.11">
	<path d="M70.939,8.004c-0.623,2.279-3.021,3.608-5.354,2.971c-2.338-0.639-3.726-3.002-3.103-5.282
		c0.625-2.282,3.021-3.611,5.358-2.974C70.178,3.357,71.564,5.722,70.939,8.004z"/>
</g>
<g>
	<g>
		<rect x="63.991" y="91.86" fill="#D3392C" width="13.5" height="36"/>
		<g>
			<path fill="#404040" d="M77.491,124.026v-9.666h-13.5v18.5h22.166c0-4.166-4.332-9-9-9"/>
			<rect x="63.991" y="107.694" fill="#FFFFFF" width="13.5" height="6.666"/>
		</g>
		<rect x="44.7" y="91.86" fill="#D3392C" width="13.5" height="36"/>
		<g>
			<path fill="#404040" d="M44.7,124.026v-9.666h13.5v18.5H36.032c0-4.166,4.334-9,9-9"/>
			<rect x="44.7" y="107.694" fill="#FFFFFF" width="13.5" height="6.666"/>
		</g>
		<g>
			<path fill="#D3392C" d="M39.472,84.764c4.79,12.068,18.408,18.029,30.417,13.311c12.012-4.723,17.862-18.336,13.072-30.404
				c-4.795-12.078-18.414-18.04-30.419-13.315C40.524,59.077,34.676,72.69,39.472,84.764z"/>
		</g>
	</g>
	<g>
		<g>
			<path fill="#ED9D98" d="M69.798,26.961c-0.555,2.028-2.688,3.209-4.763,2.641c-2.073-0.566-3.309-2.666-2.753-4.695
				c0.554-2.024,2.686-3.207,4.759-2.641C69.119,22.834,70.352,24.935,69.798,26.961z"/>
		</g>
		<g>
			<path fill="#ED9D98" d="M95.004,33.853c-0.555,2.027-2.689,3.207-4.763,2.642c-2.08-0.569-3.313-2.669-2.758-4.697
				c0.556-2.025,2.684-3.208,4.764-2.641C94.32,29.723,95.559,31.826,95.004,33.853z"/>
		</g>
		<g>
			
				<ellipse transform="matrix(-0.2637 0.9646 -0.9646 -0.2637 128.9573 -35.6749)" fill="#FAD19A" cx="78.094" cy="31.379" rx="14.046" ry="14.385"/>
		</g>
		<g>
			<path fill="#EA1C24" d="M93.941,27.934c-0.377-3.511-1.493-6.883-3.267-9.901c-3.267-5.577-11.897-10.827-18.71-12.69
				l-4.22,15.431L93.941,27.934z"/>
		</g>
		<g>
			<path fill="#FFFFFF" d="M70.225,5.443c-0.623,2.28-3.021,3.609-5.354,2.972c-2.338-0.64-3.726-3.002-3.103-5.282
				c0.625-2.282,3.021-3.612,5.358-2.975C69.46,0.797,70.848,3.162,70.225,5.443z"/>
		</g>
		<g>
			<path fill="#FFFFFF" d="M95.766,28.041c-0.291,1.063-1.418,1.688-2.509,1.393L66.032,21.99c-1.092-0.299-1.741-1.41-1.45-2.475
				l1.458-5.331c0.291-1.063,1.418-1.691,2.508-1.394l27.226,7.442c1.091,0.298,1.74,1.412,1.449,2.477L95.766,28.041z"/>
		</g>
		<g>
			
				<rect x="62.769" y="31.255" transform="matrix(-0.9646 -0.2637 0.2637 -0.9646 142.3962 88.761)" fill="#FAD19A" width="28.771" height="7.139"/>
		</g>
		<g>
			<path fill="#4D4D4D" d="M73.296,26.225c-0.131,0.479-0.635,0.757-1.121,0.624c-0.487-0.133-0.774-0.629-0.646-1.107
				c0.131-0.473,0.632-0.755,1.117-0.621C73.134,25.254,73.425,25.752,73.296,26.225z"/>
		</g>
		<g>
			<path fill="#4D4D4D" d="M84.85,29.384c-0.132,0.479,0.155,0.974,0.647,1.107c0.482,0.134,0.982-0.146,1.113-0.626
				c0.132-0.473-0.157-0.972-0.644-1.104C85.479,28.629,84.979,28.91,84.85,29.384z"/>
		</g>
		<g>
			<path fill="#4D4D4D" d="M73.296,26.225c-0.131,0.479-0.635,0.757-1.121,0.624c-0.487-0.133-0.774-0.629-0.646-1.107
				c0.131-0.473,0.632-0.755,1.117-0.621C73.134,25.254,73.425,25.752,73.296,26.225z"/>
		</g>
		<g>
			<path fill="#4D4D4D" d="M84.85,29.384c-0.132,0.479,0.155,0.974,0.647,1.107c0.482,0.134,0.982-0.146,1.113-0.626
				c0.132-0.473-0.157-0.972-0.644-1.104C85.479,28.629,84.979,28.91,84.85,29.384z"/>
		</g>
		<g>
			<path fill="#FFFFFF" d="M91.686,47.734c-1.924,7.039-9.326,11.144-16.535,9.172c-17.629-4.819-19.4-25.122-17.479-32.159
				c3.265,0.893,17.239,4.704,24.447,6.676C89.327,33.393,93.609,40.694,91.686,47.734z"/>
		</g>
		<g>
			<path fill="#ED9D98" d="M82.115,31.42c-0.451,1.647-2.494,2.526-4.566,1.96c-2.071-0.566-3.384-2.361-2.933-4.01
				c0.45-1.651,2.491-2.526,4.563-1.961C81.251,27.976,82.564,29.768,82.115,31.42z"/>
		</g>
	</g>
	<path fill="#4D4D4D" d="M64.512,44.723c0,1.607-1.304,2.911-2.913,2.911c-1.607,0-2.911-1.304-2.911-2.911"/>
	<rect x="37.701" y="72.625" fill="#404040" width="47.041" height="6.418"/>
	<g>
		<rect x="20.787" y="110.791" fill="#FEE000" width="21.991" height="21.99"/>
		<g>
			<polygon fill="#924396" points="33.068,120.547 33.068,110.791 30.121,110.791 30.121,120.547 20.787,120.547 20.787,123.496 
				30.121,123.496 30.121,132.781 33.068,132.781 33.068,123.496 42.779,123.496 42.779,120.547 			"/>
		</g>
	</g>
	<g>
		<rect x="79.417" y="115.748" fill="#DC4637" width="17.064" height="17.064"/>
		<g>
			<polygon fill="#FEE000" points="89.232,123.037 89.232,115.748 86.283,115.748 86.283,123.037 79.417,123.037 79.417,125.985 
				86.283,125.985 86.283,132.817 89.232,132.817 89.232,125.985 96.484,125.985 96.484,123.037 			"/>
		</g>
	</g>
	<g>
		<rect x="97.533" y="119.713" fill="#F68C38" width="13.194" height="13.195"/>
		<g>
			<polygon fill="#924396" points="105.533,124.787 105.533,119.713 102.585,119.713 102.585,124.787 97.533,124.787 
				97.533,127.735 102.585,127.735 102.585,132.908 105.533,132.908 105.533,127.735 110.729,127.735 110.729,124.787 			"/>
		</g>
	</g>
	<g>
		<rect x="6.533" y="119.713" fill="#028EBC" width="13.194" height="13.195"/>
		<g>
			<polygon fill="#FBE000" points="14.533,124.787 14.533,119.713 11.585,119.713 11.585,124.787 6.533,124.787 6.533,127.735 
				11.585,127.735 11.585,132.908 14.533,132.908 14.533,127.735 19.728,127.735 19.728,124.787 			"/>
		</g>
	</g>
	<g>
		<rect x="56.677" y="96.959" fill="#725D4D" width="8.668" height="11"/>
		<polygon fill="#D18316" points="72.282,132.793 49.702,132.793 46.826,104.459 75.158,104.459 		"/>
		<polygon fill="#06924A" points="104.35,100.264 17.918,100.264 61.134,51.083 		"/>
		<polygon fill="#06924A" points="94.566,69.438 21.115,86.699 49.188,41.253 		"/>
		<polygon fill="#06924A" points="77.605,45.967 25.196,68.849 40.097,31.522 		"/>
		<polygon fill="#06924A" points="55.21,30.772 26.078,54.876 26.154,25.307 		"/>
		<g>
			<polygon fill="#FED049" stroke="#FED049" stroke-width="1.0997" stroke-linejoin="round" stroke-miterlimit="10" points="
				18.166,15.465 22.441,17.382 26.444,14.945 25.942,19.603 29.495,22.654 24.91,23.616 23.103,27.941 20.772,23.879 
				16.107,23.497 19.247,20.023 			"/>
			<polygon fill="#FED049" stroke="#FED049" stroke-width="1.0997" stroke-linejoin="round" stroke-miterlimit="10" points="
				25.005,23.732 26.272,27.533 27.388,26.609 28.506,25.685 			"/>
		</g>
		<circle fill="#924396" cx="42.392" cy="66.148" r="2.401"/>
		<circle fill="#00B5F1" cx="50.701" cy="82.71" r="2.399"/>
		<circle fill="#F68C38" cx="86.346" cy="93.125" r="2.398"/>
		<circle fill="#D53F2E" cx="75.271" cy="67.551" r="2.401"/>
		<circle fill="#D53F2E" cx="44.569" cy="44.313" r="2.4"/>
		<path fill="#00B5F1" d="M36.831,31.518c0.843,1.021,0.702,2.533-0.321,3.378c-1.02,0.846-2.533,0.704-3.375-0.319
			c-0.849-1.021-0.705-2.532,0.317-3.377C34.473,30.353,35.986,30.497,36.831,31.518z"/>
		
			<path fill="none" stroke="#F5C337" stroke-width="3" stroke-linecap="round" stroke-miterlimit="10" stroke-dasharray="0,6.5982" d="
			M30.011,86.959c18.834,8.666,47.5,2.168,57-6.666"/>
		
			<path fill="none" stroke="#F5C337" stroke-width="3" stroke-linecap="round" stroke-miterlimit="10" stroke-dasharray="0,6.5982" d="
			M30.333,73.944c20.316,4.127,36.726-6.918,43.952-17.691"/>
		
			<path fill="none" stroke="#F5C337" stroke-width="3" stroke-linecap="round" stroke-miterlimit="10" stroke-dasharray="0,6.5982" d="
			M30.312,55.812c14.574-0.361,24.074-6.509,29.247-18.406"/>
		<path fill="#FFFFFF" d="M32.37,78.11c-1.359,2.553-4.529,3.518-7.08,2.154l0,0c-2.549-1.357-3.514-4.525-2.155-7.076l1.232-2.309
			c1.357-2.55,4.525-3.516,7.075-2.156l0,0c2.552,1.359,3.519,4.529,2.157,7.078L32.37,78.11z"/>
		<path fill="#FFFFFF" d="M79.709,65.501c2.354,1.679,5.621,1.13,7.298-1.224l0,0c1.677-2.353,1.13-5.62-1.224-7.296l-2.132-1.519
			c-2.354-1.679-5.617-1.131-7.297,1.222l0,0c-1.676,2.354-1.129,5.622,1.226,7.297L79.709,65.501z"/>
	</g>
	<path fill="#4D4D4D" d="M82.504,36.95c-0.479,3.119-3.394,5.261-6.513,4.783c-3.117-0.479-5.26-3.395-4.78-6.513"/>
</g>
</svg>
