<?xml version="1.0" encoding="utf-8"?>
<!-- Generator: Adobe Illustrator 16.0.0, SVG Export Plug-In . SVG Version: 6.00 Build 0)  -->
<!DOCTYPE svg PUBLIC "-//W3C//DTD SVG 1.1//EN" "http://www.w3.org/Graphics/SVG/1.1/DTD/svg11.dtd">
<svg version="1.1" id="图层_1" xmlns="http://www.w3.org/2000/svg" xmlns:xlink="http://www.w3.org/1999/xlink" x="0px" y="0px"
	 width="548px" height="140px" viewBox="0 0 548 140" enable-background="new 0 0 548 140" xml:space="preserve">
<path fill="#5FB7AE" d="M0,70.217h17.279l9.09,43.289l9.81-43.289h13.049l9.81,43.469l9.09-43.469h17.189l-17.64,66.598H52.738
	L42.569,93.707l-9.99,43.107h-15.39L0,70.217z"/>
<path fill="#5FB7AE" d="M138.417,136.814h-14.939v-5.399c-2.7,4.86-8.91,7.11-14.759,7.11c-15.839,0-25.109-12.42-25.109-26.729
	c0-16.379,11.79-26.639,25.109-26.639c8.189,0,12.8,4,14.8,7.02v-5.31h14.939v49.947H138.417z M98.549,112.1
	c0,4.602,3.4,12.5,12.4,12.51c5.31,0,8.549-2.521,10.439-5.578c1.26-1.979,1.89-4.141,2.07-6.391s-0.27-4.5-1.26-6.57
	c-1.62-3.42-5.04-6.93-11.34-6.93c-8.549,0-12.329,7.199-12.329,12.869l0.02,0.057l0,0V112.1L98.549,112.1z"/>
<path fill="#5FB7AE" d="M149.309,86.867h13.949v5.31c1.71-2.43,4.86-7.02,13.77-7.02c16.829,0,18.5,13.7,18.5,20.429v31.229h-14.939
	v-27.27c0-5.488-1.17-10.35-7.83-10.35c-7.379,0-8.549,5.31-8.549,10.438v27.182h-14.9L149.309,86.867L149.309,86.867z"/>
<path fill="#5FB7AE" d="M209.158,98.207h-7.38v-11.34h7.38v-16.65h14.939v16.649h7.199v11.339h-7.199v38.609h-14.939V98.207z"/>
<path fill="#5FB7AE" d="M265.586,86.867h13.951v5.31c0,0,0.898-1.8,3.061-3.51c2.158-1.8,5.67-3.51,10.889-3.51
	c3.422,0,7.701,0.899,11.4,4.77c1.08,1.101,2.102,2.4,3,4.142c0.99-1.529,2.16-3.062,3.602-4.319c2.971-2.7,7.02-4.59,12.238-4.59
	c3.512,0,9.102,0.8,13.102,5.04c4.68,5,5.398,8.3,5.398,19.349v27.271h-14.938V110.27c0-2.069,0-4.771-0.99-7.021
	c-0.896-2.34-2.789-4.05-6.658-4.05c-4.141,0-6.211,1.89-7.197,4.14c-1.08,2.25-1.08,4.771-1.08,6.209v27.271h-14.939v-27.18
	c0-1.351,0-3.961-0.9-6.211c-0.986-2.34-2.789-4.229-6.566-4.229c-4.229,0-6.302,1.979-7.381,4.408
	c-1.08,2.432-1.08,5.129-1.08,6.701v26.549H265.59V86.868L265.586,86.867L265.586,86.867z"/>
<path fill="#5FB7AE" d="M350.457,111.706c0-12.147,8.729-26.459,26.908-26.459c18.182,0,26.898,14.3,26.898,26.5
	c0,12.239-8.729,26.548-26.908,26.548c-18.181,0-26.908-14.309-26.908-26.548v-0.041H350.457z M365.396,111.9
	c0,7.199,5.5,12.5,12,12.511s11.971-5.312,11.971-12.601s-5.49-12.601-11.971-12.601c-6.481,0-11.973,5.312-11.973,12.601v0.072
	L365.396,111.9z"/>
<path fill="#5FB7AE" d="M412.646,86.867h14.037v5.58c1.439-2.7,4.053-7.29,12.689-7.29v15.028h-0.539
	c-7.65,0-11.25,2.791-11.25,9.801v26.818h-14.938V86.867z"/>
<path fill="#5FB7AE" d="M456.294,117.016c0.631,5.301,5.7,8.801,11.5,8.818c4.771,0,7.289-2.068,9.09-4.68h15.299
	c-2.43,5.578-5.938,9.896-10.17,12.779c-4.139,2.969-9.088,4.5-14.219,4.5c-14.309,0-26.459-11.61-26.459-26.459
	c0-13.951,10.98-26.819,26.189-26.819c7.646,0,14.198,3,18.898,7.919c6.299,6.8,8.2,14.8,7,23.939h-37.168v0.002H456.294
	L456.294,117.016z M478.794,105.675c-0.361-2.34-3.422-7.92-11.16-7.92c-7.739,0-10.799,5.58-11.16,7.92H478.794z"/>
<path fill="#5FB7AE" d="M513.623,115.667c0.092-6.3,3.422-10.17,9.359-15.84c4.5-4.41,6.119-7.11,6.119-9.9
	c0-3.239-1.529-5.579-5.221-5.579c-4.949,0-5.938,3.602-6.119,6.75c-0.09,0.631-0.09,1.26-0.09,1.892h-16.471
	c-0.09-0.812-0.09-1.171-0.09-1.62c0-12.959,9.898-22.409,23.67-22.409c14.039,0,21.6,10.2,21.6,19.101
	c0,8.278-5.311,13.14-10.17,17.64c-5.852,5.399-6.66,7.198-6.932,9.989h-15.657L513.623,115.667L513.623,115.667z M529.283,136.814
	h-15.658v-15.299h15.658V136.814z"/>
<path fill="#5FB7AE" d="M0.191,66.598V0H17.2v25.02h21.779V0h17.009v66.598H38.979V39.959H17.2v26.639H0.191z"/>
<path fill="#5FB7AE" d="M67.421,0H82.36v11.34H67.421V0z M67.421,16.649H82.36v49.948H67.421V16.649z"/>
<path fill="#5FB7AE" d="M123.938,27.989h-7.38V16.648h7.38V0h14.939v16.648h7.2v11.341h-7.2v38.608h-14.939V27.989L123.938,27.989z"
	/>
<path fill="#5FB7AE" d="M152.559,0h14.939v14.938v6.301c2.7-4.5,7.739-6.301,13.049-6.301c7.65,0,12.1,2.7,14.8,7.1
	c2.7,4.3,3.4,10.3,3.4,16.649v27.899h-14.939V39.419c0-2.79-0.36-5.4-1.53-7.29c-1.26-1.89-3.24-3.149-6.479-3.149
	c-4.14,0-6.3,1.891-7.29,4.051c-1.08,2.158-1.08,4.59-1.08,5.85v27.718H152.49V0H152.559z"/>
<path fill="#5FB7AE" d="M221.678,46.799c0.629,5.3,5.7,8.8,11.5,8.819c4.771,0,7.289-2.07,9.09-4.681h15.3
	c-2.431,5.579-5.939,9.899-10.171,12.779c-4.139,2.97-9.09,4.5-14.219,4.5c-14.31,0-26.458-11.609-26.458-26.458
	c0-13.949,10.979-26.819,26.189-26.819c7.648,0,14.2,3,18.9,7.92c6.299,6.8,8.2,14.8,7,23.939L221.678,46.799L221.678,46.799z
	 M244.176,35.459c-0.359-2.34-3.42-7.92-11.158-7.92c-7.74,0-10.801,5.58-11.16,7.92H244.176z"/>
<path fill="#5FB7AE" d="M267.486,16.649h14.042v5.58c1.439-2.699,4.051-7.29,12.689-7.29v15.029h-0.541
	c-7.65,0-11.25,2.79-11.25,9.811v26.818h-14.941L267.486,16.649L267.486,16.649z"/>
<path fill="#5FB7AE" d="M311.138,46.799c0.629,5.3,5.7,8.8,11.5,8.819c4.771,0,7.289-2.07,9.088-4.681h15.303
	c-2.432,5.579-5.939,9.899-10.17,12.779c-4.143,2.97-9.092,4.5-14.221,4.5c-14.311,0-26.458-11.609-26.458-26.458
	c0-13.949,10.979-26.819,26.188-26.819c7.648,0,14.2,3,18.898,7.92c6.301,6.8,8.2,14.8,7,23.939L311.138,46.799L311.138,46.799z
	 M333.636,35.459c-0.357-2.34-3.42-7.92-11.16-7.92c-7.736,0-10.799,5.58-11.156,7.92H333.636z"/>
<path fill="#5FB7AE" d="M374.316,44.639h-15.391V0h15.391V44.639z M374.316,66.598h-15.391v-15.3h15.391V66.598z"/>
</svg>
