<?xml version="1.0" encoding="utf-8"?>
<!-- Generator: Adobe Illustrator 16.0.0, SVG Export Plug-In . SVG Version: 6.00 Build 0)  -->
<!DOCTYPE svg PUBLIC "-//W3C//DTD SVG 1.1//EN" "http://www.w3.org/Graphics/SVG/1.1/DTD/svg11.dtd">
<svg version="1.1" id="图层_1" xmlns="http://www.w3.org/2000/svg" xmlns:xlink="http://www.w3.org/1999/xlink" x="0px" y="0px"
	 width="359.666px" height="61px" viewBox="-62.498 -14.5 359.666 61" enable-background="new -62.498 -14.5 359.666 61"
	 xml:space="preserve">
<g>
	<path fill="#FFFFFF" d="M44.812,1.444c-0.235,1.607-0.313,2.783-0.313,5.018v21.129c0,2.273,0.079,3.41,0.313,5.057h-5.841
		c0.235-1.529,0.314-2.744,0.314-5.057v-8.859H23.527v8.859c0,2.273,0.078,3.449,0.313,5.057H18c0.235-1.49,0.313-2.744,0.313-5.057
		V6.501c0-2.313-0.078-3.528-0.313-5.057h5.841c-0.235,1.646-0.313,2.94-0.313,5.018v7.565h15.758V6.501
		c0-2.234-0.079-3.646-0.314-5.057H44.812z"/>
	<path fill="#FFFFFF" d="M77.348,1.444c-0.235,1.45-0.313,2.861-0.313,5.331v13.916c0,8.114-4.821,12.661-13.367,12.661
		c-4.351,0-7.958-1.333-10.113-3.685c-2-2.156-2.94-5.096-2.94-9.016V6.814c0-2.43-0.079-3.959-0.314-5.37h5.841
		c-0.235,1.333-0.313,2.822-0.313,5.37v13.838c0,5.292,2.744,8.075,8.036,8.075c5.252,0,7.958-2.783,7.958-8.114V6.814
		c0-2.509-0.079-3.92-0.313-5.37H77.348z"/>
	<path fill="#FFFFFF" d="M103.298,32.647c-0.666-1.333-1.372-2.47-2.509-4.194L90.676,13.204c-0.745-1.176-1.725-2.862-2.666-4.704
		c0.039,0.549,0.039,0.549,0.157,1.999c0.039,0.745,0.118,2.509,0.118,3.411v12.858c0,2.626,0.118,4.469,0.313,5.88h-5.723
		c0.196-1.294,0.313-3.254,0.313-5.92V6.501c0-2.039-0.078-3.45-0.313-5.057h6.115c0.353,0.98,1.058,2.156,2.391,4.155l9.917,14.935
		c0.941,1.411,2.195,3.45,3.058,5.018c-0.157-1.528-0.274-3.881-0.274-5.527V6.854c0-2.312-0.078-3.92-0.313-5.409h5.723
		c-0.235,1.568-0.313,3.018-0.313,5.409v20.737c0,2.194,0.078,3.685,0.313,5.057H103.298z"/>
	<path fill="#FFFFFF" d="M140.616,24.611c0,2.312,0.04,3.371,0.274,5.096c-2.783,1.529-4.194,2.156-6.272,2.705
		c-1.764,0.471-3.841,0.745-5.762,0.745c-4.9,0-8.663-1.529-11.133-4.509c-2.391-2.822-3.685-7.056-3.685-11.917
		c0-6.233,2.195-11.015,6.272-13.759c2.43-1.607,5.096-2.312,8.702-2.312c3.567,0,6.821,1.215,9.016,3.371
		c1.372,1.333,2.078,2.47,2.901,4.665l-5.371,1.45c-1.293-3.567-3.175-4.822-7.213-4.822c-2.312,0-4.469,0.863-5.958,2.391
		c-1.96,2.039-2.901,4.939-2.901,8.938c0,4.038,0.901,7.095,2.666,9.172c1.607,1.882,3.724,2.705,6.821,2.705
		c2.666,0,4.665-0.51,6.664-1.764v-6.39h-2.117c-1.999,0-2.822,0.039-3.998,0.235v-5.057c1.411,0.196,2.273,0.235,4.704,0.235h2.038
		c1.803,0,2.94-0.039,4.625-0.157c-0.196,1.451-0.274,2.666-0.274,4.861V24.611z"/>
	<path fill="#FFFFFF" d="M151.984,1.444c-0.235,1.489-0.314,2.705-0.314,5.057v21.09c0,2.312,0.079,3.566,0.314,5.057h-5.958
		c0.235-1.49,0.313-2.744,0.313-5.057V6.501c0-2.431-0.078-3.489-0.313-5.057H151.984z"/>
	<path fill="#FFFFFF" d="M197.22,23.122c-0.745,2.822-1.45,4.351-2.626,5.88c-2.234,2.743-5.998,4.272-10.701,4.272
		c-4.273,0-7.684-1.294-10.075-3.764c-2.744-2.861-4.272-7.291-4.272-12.308c0-5.175,1.646-9.722,4.586-12.662
		c2.352-2.391,5.88-3.724,9.8-3.724c3.057,0,5.369,0.588,7.525,1.881c1.765,1.098,3.176,2.548,4.156,4.273
		c0.47,0.823,0.744,1.529,1.215,3.019l-5.449,1.254c-0.549-1.725-0.901-2.47-1.686-3.371c-1.332-1.607-3.293-2.431-5.723-2.431
		c-5.566,0-8.938,4.351-8.938,11.564c0,7.173,3.45,11.642,8.938,11.642c2.744,0,5.096-1.058,6.35-2.9
		c0.667-0.98,0.98-1.804,1.294-3.606L197.22,23.122z"/>
	<path fill="#FFFFFF" d="M228.462,1.444c-0.235,1.607-0.313,2.783-0.313,5.018v21.129c0,2.273,0.078,3.41,0.313,5.057h-5.841
		c0.235-1.529,0.314-2.744,0.314-5.057v-8.859h-15.759v8.859c0,2.273,0.078,3.449,0.313,5.057h-5.841
		c0.235-1.49,0.313-2.744,0.313-5.057V6.501c0-2.313-0.078-3.528-0.313-5.057h5.841c-0.235,1.646-0.313,2.94-0.313,5.018v7.565
		h15.759V6.501c0-2.234-0.079-3.646-0.314-5.057H228.462z"/>
	<path fill="#FFFFFF" d="M256.059,32.647c-0.235-1.294-0.666-2.979-1.098-4.116l-1.568-4.272h-12.544l-1.567,4.272
		c-0.706,1.882-0.862,2.47-1.176,4.116h-6.429c0.588-1.059,1.371-2.822,2.077-4.626l8.624-22.618c0.745-1.96,1.059-2.94,1.254-3.959
		h6.821c0.196,0.94,0.431,1.568,1.333,3.959l8.702,22.618c0.979,2.509,1.45,3.606,1.999,4.626H256.059z M247.787,8.147
		c-0.156-0.432-0.274-0.902-0.705-2.195c-0.627,1.842-0.627,1.842-0.745,2.195l-4.076,11.603h9.721L247.787,8.147z"/>
	<path fill="#FFFFFF" d="M289.574,4.737c2.861,2.862,4.39,7.134,4.39,12.23c0,9.917-5.762,16.346-14.66,16.346
		s-14.622-6.39-14.622-16.346c0-5.057,1.568-9.408,4.469-12.23c2.705-2.666,5.959-3.92,10.114-3.92
		C283.576,0.817,286.908,2.071,289.574,4.737z M288.477,16.967c0-3.959-1.098-7.134-3.097-9.134
		c-1.607-1.568-3.686-2.391-6.037-2.391c-5.645,0-9.212,4.469-9.212,11.564c0,3.92,1.137,7.212,3.175,9.251
		c1.607,1.567,3.685,2.391,6.076,2.391C284.987,28.648,288.477,24.18,288.477,16.967z"/>
</g>
<g id="矩形_2">
	<g>
		<rect x="-52.927" y="-8.005" fill="#BDF1AC" width="30.654" height="2.397"/>
	</g>
</g>
<g id="矩形_2_副本_5_4_">
	<g>
		<polygon fill="#E1FFD7" points="-21.447,-2.208 -45.028,21.298 -45.003,23.576 -43.491,23.627 -19.528,-0.29 		"/>
	</g>
</g>
<g id="矩形_2_副本_3_2_">
	<g>
		<rect x="-55.081" y="-0.524" fill="#FFFFFF" width="45.884" height="3.753"/>
	</g>
</g>
<g id="矩形_2_副本_4_2_">
	<g>
		<rect x="-49.15" y="37.068" fill="#FFFFFF" width="48.188" height="3.749"/>
	</g>
</g>
<g id="矩形_2_3_">
	<g>
		<rect x="-61.498" y="-8.818" fill="#F2F2F2" width="48.002" height="3.753"/>
	</g>
</g>
<g id="矩形_2_副本_2_">
	<g>
		<polygon fill="#F2F2F2" points="-16.486,-8.057 -53.415,28.751 -53.412,32.518 -50.562,32.527 -13.481,-5.053 		"/>
	</g>
</g>
<g id="矩形_2_副本_2_2_">
	<g>
		<rect x="-53.448" y="28.776" fill="#F2F2F2" width="45.949" height="3.751"/>
	</g>
</g>
<g id="矩形_2_副本_5_2_">
	<g>
		<polygon fill="#FFFFFF" points="-12.201,0.26 -49.128,37.072 -49.089,40.641 -46.721,40.719 -9.196,3.264 		"/>
	</g>
</g>
</svg>
